<?xml version="1.0" encoding="utf-8"?>
<svg viewBox="0 0 500 500" xmlns="http://www.w3.org/2000/svg">
  <g transform="matrix(2.137095, 0, 0, 2.137095, -73.640747, -283.661255)">
    <path d="M 77.312 149.083 C 31.708 151.983 42.665 181.434 45.252 212.475 C 48.173 247.521 51.081 281.299 51.081 316.671 C 93.859 316.671 135.927 314.485 177.865 314.485 C 197.129 314.485 224.162 318.66 241.256 310.113 C 248.138 306.672 252.305 280.492 254.372 272.224 C 261.182 244.985 269.946 167.686 244.171 148.355 C 230.576 138.159 209.831 140.34 193.895 140.34 C 156.779 140.34 77.312 149.083 77.312 149.083 Z M 42.781 178.336 C 57.847 178.336 74.674 178.644 88.971 177.5 C 130.298 174.194 174.071 166.571 215.025 166.571 C 218.023 166.571 249.271 161.47 249.271 161.47 C 249.573 160.742 253.643 160.742 253.643 160.742 M 62.74 161.47 C 60.384 161.47 56.028 165.842 56.028 165.842 C 56.028 166.577 62.271 168.028 63.468 168.028 C 64.197 168.028 67.111 166.432 67.111 163.656 C 67.111 161.707 63.98 162.199 62.011 162.199 L 62.74 161.47 Z M 76.584 161.47 C 75.749 162.199 74.398 164.582 74.398 165.842 C 75.177 165.842 81.684 167.299 81.684 167.299 C 82.413 167.299 86.056 165.902 86.056 165.113 C 86.056 157.278 80.065 160.742 78.041 160.742 L 78.041 161.47 Z M 100.4 159.453 C 97.698 159.453 91.955 160.821 91.955 162.306 C 91.955 167.491 101.196 165.949 104.342 165.949 C 105.071 161.236 100.4 159.453 100.4 159.453 Z M 200.897 263.542 C 199.778 256.414 200.809 249.257 199.981 243.986 C 200.281 243.939 202.592 246.306 203.155 246.566 C 205.687 247.733 216.66 253.985 218.436 253.706 C 218.826 254.234 218.123 255.603 216.316 255.887 C 215.61 256.306 213.316 257.084 212.9 257.654 C 214.726 257.367 220.926 273.47 221.328 276.03 C 221.027 276.078 214.657 278.617 214.054 278.712 C 213.082 272.522 208.617 265.656 207.777 260.307 C 205.874 260.606 204.555 262.659 202.953 262.911 C 202.452 262.99 202.252 263.021 202.052 263.053 L 200.897 263.542 Z" style="stroke: black; fill: none; stroke-width: 0.467925;"/>
  </g>
</svg>