<?xml version="1.0" encoding="utf-8"?>
<svg viewBox="0 0 500 500" xmlns="http://www.w3.org/2000/svg">
  <path d="M 141.48167419433594 218.84474182128906 C 141.48167419433594 264.78656005859375 144.13070678710938 312.1690368652344 136.5808563232422 357.4681701660156 C 136.30787658691406 359.10601806640625 131.68002319335938 396.6748046875 131.68002319335938 396.6748046875 C 161.37353515625 396.6748046875 192.46112060546875 385.7603454589844 221.9952850341797 384.0726623535156 C 255.1944122314453 382.1755676269531 288.7358703613281 384.7727966308594 321.4120788574219 384.7727966308594 C 321.4120788574219 319.1288146972656 324.2125549316406 252.90585327148438 324.2125549316406 188.73965454101562 C 324.2125549316406 188.73965454101562 314.7916259765625 190.05203247070312 314.4109191894531 190.139892578125 C 304.1585693359375 192.5058135986328 293.87335205078125 194.80751037597656 283.605712890625 197.1410675048828 C 252.1126251220703 204.298583984375 220.33193969726562 208.9945068359375 188.3896026611328 212.54367065429688 C 183.9114227294922 213.04124450683594 142.8819122314453 216.0442657470703 142.8819122314453 216.0442657470703" style="stroke: black; fill: none;"/>
  <path d="M 306.009 191.54 Z" style="stroke: black; fill: none;"/>
  <path d="M 140.782 215.344 C 140.782 213.774 147.783 206.243 147.783 206.243 C 147.783 205.542 150.406 202.042 150.583 202.042 C 150.583 202.042 177.188 178.238 177.188 178.238 C 180.322 177.538 180.742 172.637 183.489 172.637 C 188.846 177.995 219.51 173.337 226.896 173.337 C 267.288 173.337 307.455 162.835 345.216 162.835 C 345.216 162.135 343.816 162.135 343.816 162.135" style="stroke: black; fill: none;"/>
  <path d="M 323.512 188.04 C 323.512 183.377 339.43 163.535 341.716 163.535 C 344.642 160.609 343.116 174.093 343.116 176.838 C 343.116 188.273 343.116 199.708 343.116 211.143 C 343.116 244.509 347.316 279.229 347.316 311.26 C 347.316 314.524 348.717 351.867 348.717 351.867 C 349.417 353.968 322.812 377.668 322.812 383.373" style="stroke: black; fill: none;"/>
  <path d="M 390.024 93.524 Z" style="stroke: black; fill: none;"/>
  <path d="M 381.622 102.625 L 380.922 102.625 Z" style="stroke: black; fill: none;"/>
  <path d="M 231.797 171.937 C 231.797 171.937 227.925 181.452 227.596 182.439 C 224.654 191.265 215.694 204.316 215.694 211.143 C 215.694 211.143 221.295 230.926 221.295 234.947 C 221.295 233.747 226.896 225.146 226.896 225.146 C 227.596 227.308 231.797 234.247 231.797 234.247 C 231.797 232.797 235.324 227.946 235.998 227.946 C 235.998 229.616 240.198 232.847 240.198 232.847 C 241.729 232.847 243.699 227.946 243.699 227.946 C 244.399 227.946 247.9 231.343 247.9 231.447 C 247.9 231.447 249.3 209.08 249.3 204.842 C 249.3 199.865 263.302 170.537 263.302 170.537 C 263.302 170.537 231.797 171.237 231.797 171.237 Z" style="stroke: black;"/>
  <path d="M 139.031 326.212 C 139.031 329.878 139.031 333.399 139.031 336.919 C 148.342 336.919 158.229 337.408 167.205 338.366 C 167.313 338.378 175.874 338.512 175.874 338.512 C 175.874 340.959 176.145 343.234 176.145 345.458 C 176.145 345.311 179.618 342.503 179.938 342.274 C 183.457 339.767 186.476 336.941 189.962 334.46 C 190.225 334.273 193.213 332.145 193.213 332.145 C 193.213 332.145 189.373 330.05 188.879 329.83 C 184.808 328.019 178.552 325.744 176.145 323.174 C 176.009 323.028 173.165 321.871 173.165 321.871 C 173.165 321.871 174.792 326.476 174.792 326.935 C 174.792 326.935 174.792 327.515 174.792 327.515 C 173.091 326.606 168.196 326.536 165.851 326.357 C 156.228 325.622 148.153 326.357 138.759 326.357 C 138.759 326.357 138.759 326.212 138.759 326.212 Z" style="stroke: black; fill: none;" transform="matrix(0, -1, 1, 0, -167.6785, 499.650482)"/>
  <path d="M 167.036 324.111 C 167.036 327.777 167.036 331.298 167.036 334.818 C 176.347 334.818 186.234 335.307 195.21 336.265 C 195.318 336.277 203.879 336.411 203.879 336.411 C 203.879 338.858 204.15 341.133 204.15 343.357 C 204.15 343.21 207.623 340.402 207.943 340.173 C 211.462 337.666 214.481 334.84 217.967 332.359 C 218.23 332.172 221.218 330.044 221.218 330.044 C 221.218 330.044 217.378 327.949 216.884 327.729 C 212.813 325.918 206.557 323.643 204.15 321.073 C 204.014 320.927 201.17 319.77 201.17 319.77 C 201.17 319.77 202.797 324.375 202.797 324.834 C 202.797 324.834 202.797 325.414 202.797 325.414 C 201.096 324.505 196.201 324.435 193.856 324.256 C 184.233 323.521 176.158 324.256 166.764 324.256 C 166.764 324.256 166.764 324.111 166.764 324.111 Z" style="stroke: black; fill: none;" transform="matrix(0, -1, 1, 0, -137.572493, 525.554455)"/>
</svg>