<?xml version="1.0" encoding="utf-8"?>
<svg viewBox="0 0 500 500" xmlns="http://www.w3.org/2000/svg">
  <path d="M 164.474 371.139 C 164.474 368.978 164.474 315.299 164.474 306.096 C 164.474 296.705 141.558 285.339 136.289 280.072 C 103.26 247.044 103.997 195.841 127.617 156.48 C 167.871 89.392 344.358 8.618 370.464 126.124 C 392.876 226.961 303.755 235.695 270.733 301.758 C 267.519 308.16 253.381 375.48 253.381 375.48" style="stroke: black; fill: none;"/>
  <path d="M 212.175 355.966 C 212.175 309.023 217.325 271.158 231.696 228.043 C 235.64 216.174 246.249 204.799 255.55 195.515 C 259.954 191.114 272.606 180.334 266.393 180.334 C 260.44 180.334 222.728 182.197 218.694 178.163 C 212.481 171.95 234.371 159.155 229.517 154.309 C 227.229 152.004 212.175 154.678 212.175 147.809 C 212.175 140.667 264.224 128.295 264.224 128.295" style="stroke: black; fill: none;"/>
  <path d="M 142.801 386.313 C 158.793 386.313 268.554 362.361 268.554 349.456 C 263.159 354.86 199.17 397.165 199.17 397.165 C 214.137 397.165 226.519 384.827 238.208 379.81 C 243.881 377.389 261.729 373.311 255.55 373.311 C 239.594 373.311 215.11 400.506 203.501 410.177 C 194.397 417.768 163.457 431.842 175.326 431.842 C 189.31 431.842 203.501 422.252 216.515 416.669 C 221.872 414.381 237.522 407.998 231.696 407.998 C 220.16 407.998 204.24 420 194.84 427.519 C 189.626 431.689 172.994 440.533 179.647 440.533 C 186.203 440.533 249.041 410.177 249.041 410.177 C 232.669 419.64 219.55 428.635 205.682 438.362 C 198.098 443.665 174.74 455.706 183.987 455.706 C 201.179 455.706 233.867 425.52 233.867 442.692 C 233.867 445.16 205.07 477.389 205.682 477.389 C 209.94 477.389 240.37 466.547 240.37 466.547" style="stroke: black; fill: none;"/>
</svg>