<?xml version="1.0" encoding="utf-8"?>
<svg viewBox="0 0 500 500" xmlns="http://www.w3.org/2000/svg">
  <path d="M 113.641 325.263 C 59.734 325.263 43.019 249.353 81.491 215.691 C 91.301 207.107 104.828 202.068 117.578 199.944 C 117.638 199.933 133.325 198.632 133.325 198.632 C 133.328 163.844 140.317 126.571 174.661 109.399 C 202.293 95.583 231.064 92.522 247.49 119.897 C 250.327 124.626 256.675 131.5 256.675 136.301 C 256.68 126.517 273.876 112.555 279.639 105.462 C 321.607 53.811 417.424 63.3 417.424 138.925 C 443.516 148.412 468.039 190.382 465.322 220.284 C 464.6 228.222 459.338 239.757 454.824 246.529 C 453.359 248.726 444.326 249.153 444.326 249.153 C 459.607 249.153 472.474 285.368 465.978 298.362 C 460.647 309.024 442.939 311.412 431.859 312.796 C 368.655 320.697 303.335 312.705 239.616 320.67 C 222.791 322.773 206.052 323.294 189.095 323.294 C 187.308 323.294 177.941 321.982 177.941 321.982 C 161.37 321.986 144.461 322.638 128.076 322.638 C 126.673 322.638 114.953 324.607 114.953 324.607 C 114.953 324.607 112.985 325.263 112.985 325.263 Z" style="stroke: black; fill: none;"/>
  <path d="M -254.085 16.511 Z" style="stroke: black; fill: none;"/>
</svg>