<?xml version="1.0" encoding="utf-8"?>
<svg viewBox="0 0 500 500" xmlns="http://www.w3.org/2000/svg">
  <path d="M 204.765 298.463 Z" style="stroke: black; fill: none;"/>
  <path d="M 300.737 142.173 C 245.552 142.173 185.832 135.606 135.539 156.671 C 118.586 163.771 110.366 172.395 110.366 187.642 C 110.366 191.294 109.571 194.879 111.94 198.186 C 118.185 206.906 136.168 212.99 146.552 216.638 C 159.178 221.072 172.777 225.171 185.885 228.499 C 206.094 233.629 228.571 234.52 249.604 235.089 C 286.6 236.089 330.938 234.172 358.95 210.706 C 368.681 202.555 376.775 190.474 373.896 178.417 C 372.012 170.524 360.876 163.702 353.443 159.966 C 337.302 151.853 321.441 142.832 302.31 142.832 Z" style="stroke: black; fill: none;"/>
  <path d="M 110.366 195.369 C 110.366 256.122 111.152 314.553 111.152 372.48 C 111.152 384.469 112.726 396.391 112.726 408.607 C 112.726 409.864 112.036 420.062 113.513 420.062 C 116.803 420.062 125.47 425.931 127.673 427.111 C 142.601 435.109 157.264 442.776 172.512 450.021 C 188.763 457.744 205.662 468.116 222.858 472.931 C 240.878 477.977 259.45 477.337 277.924 477.337 C 298.091 477.337 317.469 476.057 333.777 462.357 C 341.778 455.635 349.616 452.605 358.95 447.378 C 361.229 446.101 366.816 441.815 366.816 439.447 C 366.816 436.648 369.176 435.03 369.176 434.16 C 368.39 349.733 374.683 263.931 374.683 176.865" style="stroke: black; fill: none;"/>
  <path d="M 111.152 351.332 C 139.672 351.332 165.971 359.17 192.178 368.955 C 210.79 375.904 230.835 386.484 250.391 389.222 C 259.984 390.565 284.854 397.993 307.174 393.108 C 328.319 388.481 346.933 371.72 356.589 366.312 C 360.981 363.852 368.237 353.976 370.75 353.976 L 370.75 353.976" style="stroke: black; fill: none;"/>
  <path d="M 111.152 283.483 C 133.585 283.483 153.348 281.196 171.725 283.483 C 195.469 286.438 217.395 301.565 239.378 310.799 C 259.353 319.189 284.761 317.848 306.244 317.848 C 323.051 317.848 358.876 287.822 373.109 276.434" style="stroke: black; fill: none;"/>
  <path d="M 81.26 46.454 Z" style="stroke: black; fill: none;"/>
</svg>