<?xml version="1.0" encoding="utf-8"?>
<svg viewBox="0 0 500 500" xmlns="http://www.w3.org/2000/svg">
  <g transform="matrix(1.226579, 0.524033, -0.524033, 1.226579, 194.456329, -62.508686)">
    <path d="M 198.283 38.144 C 192.723 33.439 130.936 17.622 112.837 28.02 C 98.069 36.503 85.511 46.358 76.795 61.227 C 70.207 72.465 66.521 84.984 63.837 97.673 C 61.208 110.1 56.694 132.064 63.027 144.243 C 78.268 173.553 115.509 184.23 146.044 179.07 C 165.51 175.779 185.727 156.347 198.688 142.624 C 210.677 129.929 225.135 119.025 225.821 100.508 C 226.837 73.067 219.586 56.17 198.283 38.144 Z" style="stroke: black; fill: none;"/>
    <path d="M 213.778 28.348 C 206.97 22.824 131.325 4.255 109.166 16.462 C 91.087 26.422 75.712 37.992 65.041 55.449 C 56.976 68.644 52.462 83.341 49.176 98.239 C 45.958 112.828 40.431 138.615 48.184 152.914 C 66.845 187.326 112.438 199.862 149.821 193.803 C 173.654 189.939 198.406 167.124 214.274 151.013 C 228.952 136.109 246.652 123.307 247.492 101.566 C 248.736 69.35 239.858 49.511 213.778 28.348 Z" style="stroke: black; fill: none;"/>
    <path d="M 130.655 32.879 C 130.25 32.879 106.293 44.283 102.713 47.863 C 90.849 59.727 74.366 75.413 74.366 93.623 C 78.922 94.028 90.806 86.675 95.424 83.904 C 115.134 72.078 130.655 56.44 130.655 32.879 Z" style="stroke: black; fill: none;"/>
    <path d="M 90.564 188.383 C 90.564 223.476 73.171 282.569 67.818 317.062 C 66.834 323.403 62.693 345.009 60.99 362.084 C 60.018 371.83 60.934 380.373 60.934 383.07 C 69.369 400.75 86.489 400.217 96.57 385.095 C 104.454 373.269 105.074 353.765 105.074 339.335 C 105.074 306.593 113.15 244.541 123.365 213.896 C 124.526 211.574 131.465 195.268 131.465 195.268" style="stroke: black; fill: none;"/>
  </g>
</svg>