<?xml version="1.0" encoding="utf-8"?>
<svg viewBox="0 0 500 500" xmlns="http://www.w3.org/2000/svg">
  <path d="M 365.519 39.282 C 347.341 0.669 207.839 6.011 157.221 15.155 C 140.956 18.099 91.762 28.252 123.462 49.797 C 127.044 52.231 131.036 54.049 134.927 55.98 C 146.436 61.708 156.102 65.893 168.689 69.594 C 189.736 75.777 204.465 78.614 226.02 81.965 C 249.059 85.546 272.79 86.265 296.087 86.913 C 315.18 87.442 338.834 89.543 357.236 83.2 C 376.407 76.597 373.646 56.543 365.519 39.282 Z" style="stroke: black; fill: none;"/>
  <path d="M 371.379 56.373 C 371.379 88.08 372.64 119.485 372.64 149.532 C 372.642 150.548 358.848 150.477 357.495 150.757 C 341.841 154.011 326.514 156.2 310.796 158.109 C 276.913 162.22 236.848 164.221 202.877 158.724 C 190.154 156.663 135.23 147.021 123.992 141.563 C 122.354 140.765 112.634 134.822 112.634 134.822 C 112.634 134.822 112.634 104.906 112.634 102.34 C 112.634 81.092 112.634 59.845 112.634 37.991" style="stroke: black; fill: none;"/>
  <path d="M 350.432 152.858 C 350.432 243.736 355.404 333.685 355.404 423.189 C 355.404 433.259 354.779 442.948 354.779 453.029 C 354.161 453.029 348.373 458.899 347.944 459.176 C 338.067 465.519 327.416 468.38 316.872 471.462 C 278.351 482.718 234.662 490.221 195.059 484.628 C 190.308 483.958 185.874 481.474 181.385 479.363 C 177.903 477.722 173.818 474.488 170.819 471.462 C 162.998 463.573 154.767 457.934 147.824 453.029 C 147.399 452.731 138.501 449.52 138.501 449.52 C 137.511 449.52 134.773 448.646 134.773 448.646 C 135.395 448.646 135.395 449.52 135.395 449.52 C 135.395 449.52 136.016 418.092 136.016 415.291 C 136.016 391.824 134.417 369.364 132.906 345.952 C 128.62 279.346 129.18 212.645 129.18 145.842" style="stroke: black; fill: none;"/>
</svg>