<?xml version="1.0" encoding="utf-8"?>
<svg viewBox="0 0 500 500" xmlns="http://www.w3.org/2000/svg">
  <path d="M 12.434 168.308 C 12.434 201.034 12.434 232.514 12.434 263.984 C 94.513 263.984 181.64 268.298 260.721 276.837 C 261.747 276.948 337.208 278.154 337.208 278.154 C 337.208 299.979 339.601 320.365 339.601 340.219 C 339.601 338.931 370.186 313.818 373.002 311.817 C 404.039 289.358 430.651 264.175 461.356 241.988 C 463.679 240.298 490.009 221.25 490.009 221.25 C 490.009 221.25 456.166 202.553 451.801 200.602 C 415.897 184.48 360.792 164.094 339.601 141.153 C 338.404 139.805 313.281 129.506 313.281 129.506 C 313.281 129.506 327.643 170.631 327.643 174.734 C 327.643 174.734 327.643 179.934 327.643 179.934 C 312.647 171.838 269.491 171.204 248.853 169.605 C 164.009 163.007 92.863 169.605 9.991 169.605 C 9.991 169.605 9.991 168.308 9.991 168.308 Z" style="stroke: black; fill: rgb(255, 255, 255); stroke-width: 1.11552;"/>
</svg>