<?xml version="1.0" encoding="utf-8"?>
<svg viewBox="0 0 500 500" xmlns="http://www.w3.org/2000/svg">
  <g transform="matrix(1.495973, 0, 0, 1.495973, -40.776417, -109.404236)">
    <path d="M 115.164 241.932 C 125.57 262.154 151.127 277.92 167.152 292.857 C 173.509 298.783 178.55 305.83 183.894 312.57 C 186.412 315.746 188.514 319.192 190.943 322.426 C 192.627 324.669 194.493 326.79 196.23 328.997 C 200.914 334.952 208.078 343.604 209.447 348.711 C 209.903 350.41 213.38 355.976 215.615 355.281 C 217.064 354.831 221.224 344.304 222.664 342.961 C 231.71 334.53 229.722 338.286 242.05 329.819 C 334.221 266.511 194.128 360.088 284.345 300.249 C 298.228 291.042 311.529 281.058 325.759 272.323 C 339.512 263.88 353.967 255.706 368.054 247.681 C 373.666 244.485 378.544 237.825 384.796 237.825 C 384.796 233.259 377.141 228.858 375.104 226.326 C 370.873 221.068 366.906 215.3 362.767 209.899 C 345.183 186.951 323.624 165.197 302.849 145.831 C 301.968 145.831 294.794 141.667 293.157 140.903 C 287.306 138.177 280.162 125.297 272.89 125.297 C 272.89 132.007 250.644 146.985 245.574 149.939 C 233.372 157.047 219.209 161.262 206.804 168.008 C 186.294 179.161 166.165 192.689 144.242 200.863 C 132.402 205.278 121.337 210.715 113.402 218.112 C 111.533 219.854 101.947 221.228 101.947 223.04 C 109.719 223.04 116.926 236.794 116.926 243.575 Z" style="stroke: black; fill: none; stroke-width: 0.668461;" transform="matrix(0, 1, -1, 0, 483.690338, -3.052605)"/>
    <path d="M 93.372 39.769 C 93.372 60.195 93.933 79.863 92.491 99.369 C 91.563 111.924 87.287 137.357 90.797 147.204 C 92.555 152.137 176.823 254.444 185.893 260.287 C 189.221 262.431 198.229 272.298 198.229 262.842 L 198.229 261.138 C 200.872 259.263 201.754 259.926 201.754 257.733 C 201.754 230.171 204.397 200.133 204.397 171.62" style="stroke: black; fill: none; stroke-width: 0.668461;" transform="matrix(0, 1, -1, 0, 300.236366, 6.404013)"/>
    <path d="M 53.04 402.01 C 71.829 393.832 87.314 382.316 103.266 372.932 C 131.452 356.352 160.795 338.817 186.975 319.182 C 198.322 310.672 208.523 301.88 219.577 294.51 C 223.615 291.819 228.661 283.936 232.795 283.936 C 232.795 283.055 229.27 283.055 229.27 283.055 C 228.389 281.293 228.389 275.586 228.389 275.125 C 228.389 270.719 228.389 266.313 228.389 261.907 C 228.389 237.235 228.389 212.563 228.389 187.01" style="stroke: black; fill: none; stroke-width: 0.668461;" transform="matrix(0, 1, -1, 0, 437.427508, 151.592492)"/>
    <path d="M 280.522 156.091 C 272.394 156.091 261.161 153.93 255.287 157.455 C 249.24 161.083 234.724 175.718 240.281 184.055 C 242.373 187.191 251.272 189.035 254.604 189.512 C 269.718 191.671 279.233 186.961 290.753 179.28 C 294.838 176.557 297.574 168.663 297.574 164.275 C 297.574 163.066 298.296 158.605 296.892 158.137 C 291.872 156.464 287.004 156.091 281.204 156.091 Z" style="stroke: black; fill: none; stroke-width: 0.668461;" transform="matrix(0, 1, -1, 0, 441.134845, -95.662247)"/>
    <path d="M 227.763 169.381 C 227.763 174.156 227.763 177.566 227.763 180.977 C 227.763 181.659 227.589 184.213 227.763 184.387 C 229.106 185.73 233.253 188.636 235.266 189.843 C 243.071 194.526 261.853 195.473 270.732 193.254 C 291.601 188.037 287.784 165.09 287.784 150.966 C 287.102 150.966 286.42 150.966 286.42 150.966" style="stroke: black; fill: none; stroke-width: 0.668461;" transform="matrix(0, 1, -1, 0, 430.553259, -85.190241)"/>
    <path d="M 219.642 207.372 C 211.514 207.372 200.281 205.211 194.407 208.736 C 188.36 212.364 173.844 226.999 179.401 235.336 C 181.493 238.472 190.392 240.316 193.724 240.793 C 208.838 242.952 218.353 238.242 229.873 230.561 C 233.958 227.838 236.694 219.944 236.694 215.556 C 236.694 214.347 237.416 209.886 236.012 209.418 C 230.992 207.745 226.124 207.372 220.324 207.372 Z" style="stroke: black; fill: none; stroke-width: 0.668461;" transform="matrix(0, 1, -1, 0, 431.535802, 16.498786)"/>
    <path d="M 166.883 220.662 C 166.883 225.437 166.883 228.847 166.883 232.258 C 166.883 232.94 166.709 235.494 166.883 235.668 C 168.226 237.011 172.373 239.917 174.386 241.124 C 182.191 245.807 200.973 246.754 209.852 244.535 C 230.721 239.318 226.904 216.371 226.904 202.247 C 226.222 202.247 225.54 202.247 225.54 202.247" style="stroke: black; fill: none; stroke-width: 0.668461;" transform="matrix(0, 1, -1, 0, 420.954196, 26.970772)"/>
    <path d="M 323.904 241.619 C 315.776 241.619 304.543 239.458 298.669 242.983 C 292.622 246.611 278.106 261.246 283.663 269.583 C 285.755 272.719 294.654 274.563 297.986 275.04 C 313.1 277.199 322.615 272.489 334.135 264.808 C 338.22 262.085 340.956 254.191 340.956 249.803 C 340.956 248.594 341.678 244.133 340.274 243.665 C 335.254 241.992 330.386 241.619 324.586 241.619 Z" style="stroke: black; fill: none; stroke-width: 0.668461;" transform="matrix(0, 1, -1, 0, 570.044832, -53.516191)"/>
    <path d="M 271.145 254.909 C 271.145 259.684 271.145 263.094 271.145 266.505 C 271.145 267.187 270.971 269.741 271.145 269.915 C 272.488 271.258 276.635 274.164 278.648 275.371 C 286.453 280.054 305.235 281.001 314.114 278.782 C 334.983 273.565 331.166 250.618 331.166 236.494 C 330.484 236.494 329.802 236.494 329.802 236.494" style="stroke: black; fill: none; stroke-width: 0.668461;" transform="matrix(0, 1, -1, 0, 559.463226, -43.044206)"/>
    <path d="M 273.441 293.606 C 265.313 293.606 254.08 291.445 248.206 294.97 C 242.159 298.598 227.643 313.233 233.2 321.57 C 235.292 324.706 244.191 326.55 247.523 327.027 C 262.637 329.186 272.152 324.476 283.672 316.795 C 287.757 314.072 290.493 306.178 290.493 301.79 C 290.493 300.581 291.215 296.12 289.811 295.652 C 284.791 293.979 279.923 293.606 274.123 293.606 Z" style="stroke: black; fill: none; stroke-width: 0.668461;" transform="matrix(0, 1, -1, 0, 571.568832, 48.933784)"/>
    <path d="M 220.682 306.896 C 220.682 311.671 220.682 315.081 220.682 318.492 C 220.682 319.174 220.508 321.728 220.682 321.902 C 222.025 323.245 226.172 326.151 228.185 327.358 C 235.99 332.041 254.772 332.988 263.651 330.769 C 284.52 325.552 280.703 302.605 280.703 288.481 C 280.021 288.481 279.339 288.481 279.339 288.481" style="stroke: black; fill: none; stroke-width: 0.668461;" transform="matrix(0, 1, -1, 0, 560.987226, 59.405769)"/>
  </g>
</svg>