<?xml version="1.0" encoding="utf-8"?>
<svg viewBox="0 0 500 500" xmlns="http://www.w3.org/2000/svg">
  <g transform="matrix(1.296685, 0, 0, 1.296685, -73.335754, -66.202469)">
    <path d="M 93.819 144.051 C 93.819 215.173 97.92 288.526 86.232 358.654 C 85.808 361.189 78.645 419.35 78.645 419.35 C 124.612 419.35 172.739 402.453 218.461 399.84 C 269.857 396.903 321.783 400.924 372.369 400.924 C 372.369 299.3 376.705 196.781 376.705 97.445 C 376.705 97.445 362.119 99.477 361.53 99.613 C 345.658 103.275 329.735 106.838 313.84 110.451 C 265.086 121.532 215.886 128.801 166.437 134.296 C 159.504 135.066 95.985 139.715 95.985 139.715 M 92.735 138.631 C 92.735 136.201 103.573 124.542 103.573 124.542 C 103.573 123.457 107.634 118.038 107.907 118.038 C 107.907 118.038 149.095 81.187 149.095 81.187 C 153.946 80.104 154.597 72.516 158.849 72.516 C 167.142 80.811 214.614 73.6 226.049 73.6 C 288.58 73.6 350.761 57.342 409.219 57.342 C 409.219 56.258 407.052 56.258 407.052 56.258 M 375.619 96.362 C 375.619 89.143 400.262 58.425 403.801 58.425 C 408.33 53.896 405.968 74.77 405.968 79.02 C 405.968 96.722 405.968 114.425 405.968 132.127 C 405.968 183.781 412.47 237.532 412.47 287.119 C 412.47 292.172 414.64 349.983 414.64 349.983 C 415.723 353.235 374.536 389.925 374.536 398.757 M 233.635 71.433 C 233.635 71.433 227.642 86.163 227.131 87.691 C 222.577 101.354 208.706 121.559 208.706 132.127 C 208.706 132.127 217.377 162.754 217.377 168.979 C 217.377 167.121 226.049 153.806 226.049 153.806 C 227.131 157.153 233.635 167.895 233.635 167.895 C 233.635 165.65 239.095 158.14 240.14 158.14 C 240.14 160.726 246.642 165.727 246.642 165.727 C 249.011 165.727 252.06 158.14 252.06 158.14 C 253.144 158.14 258.564 163.399 258.564 163.56 C 258.564 163.56 260.732 128.934 260.732 122.373 C 260.732 114.668 282.408 69.265 282.408 69.265 C 282.408 69.265 233.635 70.349 233.635 70.349 Z M 120.216 363.533 C 125.892 363.533 131.342 363.533 136.793 363.533 C 136.793 349.118 137.549 333.813 139.033 319.917 C 139.051 319.75 139.259 306.496 139.259 306.496 C 143.047 306.496 146.569 306.076 150.012 306.076 C 149.784 306.076 145.436 300.699 145.082 300.204 C 141.201 294.757 136.827 290.083 132.986 284.686 C 132.695 284.279 129.401 279.654 129.401 279.654 C 129.401 279.654 126.159 285.599 125.818 286.362 C 123.013 292.665 119.491 302.35 115.513 306.076 C 115.288 306.287 113.496 310.69 113.496 310.69 C 113.496 310.69 120.625 308.172 121.336 308.172 C 121.336 308.172 122.233 308.172 122.233 308.172 C 120.827 310.805 120.719 318.383 120.44 322.013 C 119.303 336.91 120.44 349.41 120.44 363.953 C 120.44 363.953 120.216 363.953 120.216 363.953 Z M 163.571 360.28 C 169.247 360.28 174.698 360.28 180.147 360.28 C 180.147 345.865 180.904 330.559 182.387 316.663 C 182.406 316.496 182.613 303.243 182.613 303.243 C 186.401 303.243 189.923 302.823 193.366 302.823 C 193.139 302.823 188.792 297.447 188.437 296.951 C 184.556 291.504 180.181 286.83 176.34 281.433 C 176.051 281.026 172.756 276.4 172.756 276.4 C 172.756 276.4 169.513 282.345 169.172 283.11 C 166.369 289.412 162.847 299.097 158.868 302.823 C 158.642 303.034 156.851 307.437 156.851 307.437 C 156.851 307.437 163.98 304.918 164.691 304.918 C 164.691 304.918 165.589 304.918 165.589 304.918 C 164.181 307.551 164.073 315.129 163.796 318.76 C 162.658 333.657 163.796 346.158 163.796 360.701 C 163.796 360.701 163.571 360.701 163.571 360.701 Z" style="stroke: black; fill: none;"/>
    <path d="M 233.854 71.821 C 233.854 71.821 227.861 86.551 227.35 88.079 C 222.796 101.742 208.925 121.947 208.925 132.515 C 208.925 132.515 217.596 163.142 217.596 169.367 C 217.596 167.509 226.268 154.194 226.268 154.194 C 227.35 157.541 233.854 168.283 233.854 168.283 C 233.854 166.038 239.314 158.528 240.359 158.528 C 240.359 161.114 246.861 166.115 246.861 166.115 C 249.23 166.115 252.279 158.528 252.279 158.528 C 253.363 158.528 258.783 163.787 258.783 163.948 C 258.783 163.948 260.951 129.322 260.951 122.761 C 260.951 115.056 282.627 69.653 282.627 69.653 C 282.627 69.653 233.854 70.737 233.854 70.737 Z" style="stroke: black;"/>
  </g>
</svg>