<?xml version="1.0" encoding="utf-8"?>
<svg viewBox="0 0 500 500" xmlns="http://www.w3.org/2000/svg">
  <path d="M 197.27 162.584 C 202.417 162.584 237.388 212.459 238.498 214.117 C 279.181 275.148 238.498 367.963 238.498 420.255 L 238.498 425.413" style="stroke: black; fill: none;"/>
  <path d="M 267.381 449.983 C 267.381 466.125 254.297 479.214 238.151 479.214 C 222.009 479.214 208.92 466.125 208.92 449.983 C 208.92 433.832 222.009 420.744 238.151 420.744 C 254.297 420.744 267.381 433.832 267.381 449.983 Z" style="fill: rgb(255, 255, 255); stroke: rgb(0, 0, 0);"/>
  <path d="M 144.824 86.759 C 149.982 86.759 184.943 136.634 186.063 138.297 C 226.741 199.327 186.063 292.142 186.063 344.436 L 186.063 349.589" style="stroke: black; fill: none;"/>
  <path d="M 215.055 375.581 C 215.055 391.726 201.977 404.811 185.826 404.811 C 169.679 404.811 156.595 391.726 156.595 375.581 C 156.595 359.439 169.679 346.347 185.826 346.347 C 201.977 346.347 215.055 359.439 215.055 375.581 Z" style="fill: rgb(255, 255, 255); stroke: rgb(0, 0, 0);"/>
  <path d="M 178.681 58.376 C 178.681 74.518 165.602 87.608 149.456 87.608 C 133.309 87.608 120.225 74.518 120.225 58.376 C 120.225 42.231 133.309 29.141 149.456 29.141 C 165.602 29.141 178.681 42.231 178.681 58.376 Z" style="fill: rgb(255, 255, 255); stroke: rgb(0, 0, 0);"/>
</svg>