<?xml version="1.0" encoding="utf-8"?>
<svg viewBox="0 0 500 500" xmlns="http://www.w3.org/2000/svg">
  <path style="stroke: rgb(0, 0, 0); fill: rgb(255, 255, 255);" d="M 89.905 218.914 L 21.465 170.194 L 49.306 115.675 L 131.665 146.993 L 157.187 115.675 L 146.746 29.834 L 201.265 15.914 C 201.265 15.914 240.707 95.953 240.707 94.794 C 240.707 93.636 287.106 92.474 287.106 92.474 L 332.345 24.033 L 384.546 50.714 L 356.706 127.275 L 379.906 159.753 L 470.387 149.315 L 486.627 203.835 L 412.386 243.276 L 403.106 282.715 L 476.186 336.075 L 450.666 384.796 L 370.626 359.274 L 340.465 383.635 L 352.065 475.275 L 296.386 490.356 L 262.747 412.634 L 217.506 407.994 L 166.465 477.596 L 111.946 457.875 L 154.865 373.195 L 116.586 341.876 L 26.105 356.955 L 13.346 304.755 L 92.226 262.994 L 89.905 218.914 Z M 304.142 306.349 C 337.017 278.561 341.142 229.383 313.354 196.51 C 285.566 163.634 236.389 159.51 203.514 187.297 C 170.638 215.084 166.513 264.261 194.3 297.137 C 222.089 330.012 271.264 334.136 304.142 306.349 Z"/>
</svg>