<?xml version="1.0" encoding="utf-8"?>
<svg viewBox="0 0 500 500" xmlns="http://www.w3.org/2000/svg">
  <path style="stroke: rgb(0, 0, 0); fill: rgb(51, 51, 51);" d="M 80.55 194.11 L 20.473 151.343 L 44.912 103.485 L 117.208 130.977 L 139.611 103.485 L 130.446 28.133 L 178.304 15.914 C 178.304 15.914 212.926 86.173 212.926 85.156 C 212.926 84.139 253.656 83.119 253.656 83.119 L 293.367 23.041 L 339.19 46.462 L 314.752 113.668 L 335.117 142.178 L 414.542 133.015 L 428.798 180.873 L 363.628 215.495 L 355.482 250.115 L 419.633 296.955 L 397.231 339.723 L 326.971 317.32 L 300.495 338.704 L 310.678 419.147 L 261.802 432.385 L 232.273 364.16 L 192.56 360.087 L 147.756 421.184 L 99.898 403.873 L 137.573 329.54 L 103.971 302.047 L 24.546 315.284 L 13.346 269.462 L 82.588 232.804 L 80.55 194.11 Z M 268.61 270.861 C 297.468 246.469 301.089 203.3 276.697 174.443 C 252.304 145.584 209.136 141.964 180.278 166.356 C 151.419 190.748 147.798 233.916 172.19 262.775 C 196.583 291.633 239.75 295.253 268.61 270.861 Z"/>
</svg>