<?xml version="1.0" encoding="utf-8"?>
<svg viewBox="0 0 500 500" xmlns="http://www.w3.org/2000/svg">
  <path d="M 183.215 192.481 C 183.215 192.481 196.837 176.302 209.977 169.053 C 219.148 163.996 239.107 153.235 239.107 157.246 C 239.107 158.947 245.894 167.174 247.612 170.61 C 252.604 180.594 262.334 207.343 268.269 219.215 C 269.849 222.372 207.11 241.086 208.731 241.086 C 212.38 241.086 221.065 267.817 224.526 267.817 C 239.439 267.817 348.462 232.666 348.462 228.934 C 348.462 221.87 341.498 198.23 338.741 200.988 C 331.475 208.252 301.075 214.434 301.075 213.138 C 301.075 199.81 250.522 128.087 243.23 120.793 C 241.82 119.383 229.386 100.502 229.386 102.567 C 229.386 105.481 221.68 123.768 208.464 138.481 C 193.664 154.956 173.192 167.879 173.494 168.181 C 175.949 170.634 183.215 191.267 183.215 191.267 L 183.215 192.481 Z M 483.096 227.527 C 483.096 227.527 468.639 265.079 458.929 283.423 C 446.796 306.35 425.518 320.488 401.099 337.766 C 357.992 368.26 275.244 367.929 223.01 361 C 199.364 357.862 120.075 341.615 101.849 322.276 C 94.702 314.693 70.589 301.008 46.929 273.122 C 28.383 251.262 8.424 212.912 8.424 213.846 C 8.424 234.499 8.424 255.152 8.424 275.806 C 8.424 281.357 6.018 293.935 8.424 299.042 C 42.185 370.689 118.964 408.957 190.894 419.864 C 241.706 427.567 311.412 427.318 358.767 410.567 C 379.858 403.105 395.159 389.709 414.237 379.589 C 420.341 376.35 425.416 363.081 430.295 357.9 C 435.768 352.093 442.581 346.413 447.812 340.864 C 454.991 333.246 457.231 316.926 463.87 309.883 C 472.065 301.184 470.367 282.853 478.466 274.258 C 479.9 272.737 483.096 227.527 483.096 227.527 Z M 484.306 202.884 C 483.006 195.092 451.274 100.983 382.932 67.1 C 301.756 26.855 163.69 62.728 109.54 74.301 C 71.246 82.485 -4.875 156.673 9.628 215.815 C 27.592 289.081 145.026 349.575 187.724 355.178 C 237.045 361.649 334.306 374.483 400.377 339.619 C 458.39 309.007 489.302 232.86 484.306 202.884 Z M 14.235 228.648 C 14.235 228.648 14.235 246.64 14.235 248.221 C 14.235 265.674 16.904 282.708 16.904 298.932 C 16.904 300.058 16.904 314.947 16.904 314.947 M 23.132 247.331 C 23.132 247.331 23.132 264.999 23.132 266.014 C 23.132 280.062 22.623 294.1 24.911 307.829 C 25.383 310.661 25.206 317.021 26.69 318.505 C 27.408 319.223 26.69 332.74 26.69 332.74 M 36.477 263.345 C 36.477 263.345 36.477 281.82 36.477 282.918 C 36.477 299.433 37.367 316.568 37.367 332.74 C 37.367 333.512 38.256 346.085 38.256 346.085 M 50.712 277.58 C 50.712 297.856 46.296 324.832 52.491 343.416 C 54.182 348.488 53.381 359.431 53.381 359.431 M 72.064 298.043 C 72.064 298.043 72.064 314.156 72.064 314.947 C 72.064 331.189 72.954 347.974 72.954 363.879 C 72.954 368.327 72.954 377.224 72.954 377.224 M 88.968 312.278 C 88.968 328.248 85.096 349.281 88.968 364.769 C 90.93 372.616 93.416 382.744 93.416 389.68 M 104.982 324.733 C 104.982 340.455 101.188 361.157 104.982 376.335 C 105.767 379.473 110.667 394.128 107.651 394.128 M 123.665 334.52 C 123.665 334.52 123.665 350.602 123.665 351.423 C 123.665 355.872 123.665 360.32 123.665 364.769 C 123.665 372.689 120.927 392.28 126.335 397.687 C 127.658 399.011 126.335 404.804 126.335 404.804 M 145.018 344.306 C 145.018 366.788 150.356 390.396 150.356 411.032 M 169.039 350.534 C 169.039 350.534 169.039 367.939 169.039 369.217 C 169.039 385.001 170.819 401.305 170.819 415.48 M 194.84 355.872 C 194.84 355.872 194.84 368.463 194.84 369.217 C 194.84 381.827 198.399 393.539 198.399 405.694 C 198.399 406.732 198.399 419.929 198.399 419.929 M 224.199 361.21 C 224.199 361.21 224.199 373.734 224.199 374.555 C 224.199 387.307 224.199 400.059 224.199 412.811 C 224.199 413.457 224.199 426.157 224.199 426.157 M 253.559 362.989 C 253.559 362.989 253.559 374.291 253.559 374.555 C 253.559 386.418 253.559 398.28 253.559 410.142 C 253.559 410.414 253.559 423.488 253.559 423.488 M 284.698 363.879 C 284.698 368.327 284.698 372.776 284.698 377.224 C 284.698 381.079 284.698 384.935 284.698 388.79 C 284.698 393.884 284.752 424.377 284.698 424.377 M 312.278 363.879 C 312.278 363.879 312.278 376.781 312.278 378.114 C 312.278 391.699 313.167 407.824 313.167 419.929 M 335.409 359.431 C 335.409 359.431 335.409 370.175 335.409 370.996 C 335.409 381.879 336.299 392.709 336.299 403.915 C 336.299 404.721 336.299 416.37 336.299 416.37 M 363.879 354.092 C 363.879 354.092 366.341 371.74 366.548 372.776 C 368.99 384.985 368.327 396.491 368.327 409.253 M 389.68 346.975 C 389.68 359.134 389.68 371.293 389.68 383.452 C 389.68 384.482 389.68 393.238 389.68 393.238 M 414.591 326.512 C 414.591 326.512 414.591 358.244 414.591 368.327 C 414.591 368.945 414.591 379.004 414.591 379.004 M 437.722 306.94 C 437.722 306.94 437.722 315.151 437.722 315.836 C 437.722 319.587 437.722 347.865 437.722 347.865 M 453.737 292.705 C 453.737 292.705 453.737 300.455 453.737 300.712 C 453.737 303.807 455.516 330.071 455.516 330.071 M 467.972 263.345 C 467.972 271.474 468.861 282.583 468.861 289.146 C 468.861 289.654 468.861 297.153 468.861 297.153" style="stroke: rgb(0, 0, 0); fill: rgb(255, 255, 255);"/>
</svg>