<?xml version="1.0" encoding="utf-8"?>
<svg viewBox="0 0 500 500" xmlns="http://www.w3.org/2000/svg">
  <g transform="matrix(1.519975, 0, 0, 1.519975, -112.717369, -116.726372)">
    <path d="M 177.742 106.495 L 86.969 167.958 C 86.969 167.958 97.489 183.57 117.139 183.57 C 116.652 184.057 113.608 228.475 120.258 270.836 C 122.452 284.813 133.836 320.969 158.509 344.033 C 187.363 371.004 229.946 384.114 229.946 384.114 C 229.946 380.337 203.876 357.25 185.208 319.276 C 179.332 307.324 165.274 268.637 164.487 261.177 C 161.093 229.014 166.44 189.353 166.44 189.353 C 166.44 189.353 213.305 193.654 212.09 193.046 C 195.707 184.855 181.73 106.495 177.742 106.495 Z" style="stroke: black; fill: none;"/>
    <path d="M 348.627 102.736 L 257.854 164.199 C 257.854 164.199 268.374 179.811 288.023 179.811 C 287.536 180.298 284.492 224.716 291.143 267.077 C 293.337 281.054 304.721 317.21 329.393 340.274 C 358.247 367.245 400.831 380.355 400.831 380.355 C 400.831 376.578 374.76 353.491 356.092 315.517 C 350.217 303.565 336.159 264.878 335.372 257.418 C 331.978 225.255 337.325 185.594 337.325 185.594 C 337.325 185.594 384.19 189.895 382.975 189.287 C 366.592 181.096 352.615 102.736 348.627 102.736 Z" style="stroke: black; fill: none;" transform="matrix(-1, 0, 0, -1, 658.684964, 483.091008)"/>
  </g>
</svg>