<?xml version="1.0" encoding="utf-8"?>
<svg viewBox="0 0 500 500" xmlns="http://www.w3.org/2000/svg">
  <path d="M 195.727 293.45 Z" style="stroke: black; fill: none;"/>
  <path d="M 324.155 23.256 C 247.46 23.256 164.464 14.129 94.569 43.405 C 71.007 53.272 59.584 65.258 59.584 86.447 C 59.584 91.524 58.479 96.506 61.772 101.101 C 70.449 113.22 95.442 121.675 109.874 126.745 C 127.42 132.907 146.321 138.605 164.538 143.23 C 192.624 150.36 223.861 151.597 253.092 152.389 C 304.509 153.777 366.129 151.114 405.059 118.501 C 418.582 107.173 429.83 90.384 425.83 73.626 C 423.211 62.658 407.735 53.176 397.404 47.985 C 374.973 36.709 352.93 24.173 326.342 24.173 Z M 59.584 97.187 C 59.584 181.62 60.676 262.824 60.676 343.33 C 60.676 359.991 62.864 376.56 62.864 393.537 C 62.864 395.286 61.905 409.458 63.957 409.458 C 68.53 409.458 80.574 417.614 83.637 419.254 C 104.382 430.37 124.761 441.025 145.953 451.093 C 168.537 461.828 192.022 476.242 215.922 482.933 C 240.964 489.946 266.776 489.056 292.451 489.056 C 320.478 489.056 347.409 487.278 370.074 468.238 C 381.193 458.895 392.087 454.685 405.059 447.421 C 408.226 445.646 415.99 439.689 415.99 436.399 C 415.99 432.508 419.271 430.259 419.271 429.051 C 418.177 311.717 426.923 192.471 426.923 71.471 M 60.676 313.94 C 100.312 313.94 136.862 324.831 173.283 338.431 C 199.15 348.089 227.007 362.792 254.186 366.598 C 267.519 368.464 302.082 378.786 333.101 371.999 C 362.488 365.567 388.357 342.273 401.777 334.757 C 407.88 331.339 417.965 317.613 421.457 317.613 L 421.457 317.613 M 60.676 219.644 C 91.853 219.644 119.319 216.466 144.859 219.644 C 177.858 223.752 208.33 244.774 238.881 257.607 C 266.642 269.267 301.953 267.404 331.809 267.404 C 355.167 267.404 404.955 225.674 424.735 209.848" style="stroke: black; fill: none;"/>
  <path d="M 58.117 12.66 Z" style="stroke: black; fill: none;"/>
</svg>