<?xml version="1.0" encoding="utf-8"?>
<svg viewBox="0 0 500 500" xmlns="http://www.w3.org/2000/svg">
  <path d="M 142.131 360.991 C 142.131 351.684 142.98 303.825 142.98 294.519 C 142.98 274.175 150.176 253.003 130.428 240.428 C 124.39 236.582 118.678 236.49 112.891 233.726 C 109.847 232.273 82.91 230.916 79.367 232.608 C 52.409 245.485 53.765 338.608 48.809 343.71 C 43.748 348.919 31.969 339.91 31.201 339.176 C 30.095 338.119 22.512 329.031 22.546 317.084 C 22.67 274.197 33.501 205.571 46.141 181.421 C 63.407 148.431 80.998 114.748 109.613 87.411 C 117.517 79.861 145.334 82.943 157.317 82.943 C 159.867 82.943 171.086 84.308 172.514 82.943 C 177.308 78.364 205.69 81.826 213.433 81.826 C 215.479 81.826 225.053 83.011 226.293 81.826 C 231.838 76.529 260.102 80.709 268.38 80.709 C 292.887 80.709 344.943 83.304 374.247 93.049 C 400.156 101.662 404.974 117.567 405.164 117.567 C 413.551 117.567 412.606 228.034 403.995 252.714 C 397.127 272.397 394.918 274.401 387.314 288.929 C 380.511 301.929 382.969 350.359 375.715 363.307 C 371.611 370.633 327.898 363.335 327.898 363.335 C 327.898 363.335 331.992 263.739 326.45 263.066 C 320.6 262.356 321.763 342.721 318.552 355.81 C 317.723 359.179 290.33 356.345 290.33 356.345 C 290.33 356.345 294.878 295.394 290.167 279.122 C 286.639 266.938 237.608 273.251 231.695 284.548 C 230.365 287.09 230.977 367.077 228.501 367.077 C 224.67 367.077 181.869 367.738 181.869 359.937 C 181.869 356.509 183.499 268.707 179.213 268.707 C 170.361 268.707 178.033 358.82 172.514 358.82 C 168.535 358.82 147.662 366.333 142.137 361.053" style="stroke: rgb(0, 0, 0); fill: none; stroke-width: 2;"/>
  <path d="M 123.414 111.983 C 123.414 111.983 143.948 99.276 146.796 97.463 C 153.035 93.488 167.215 79.633 167.215 79.633 C 167.215 79.633 178.501 69.636 189.726 66.158 C 203.008 62.044 216.672 64.386 218.11 65.072 C 226.902 69.273 232.836 71.324 239.151 77.36 C 244.907 82.857 249.673 145.289 249.673 153.309" style="stroke: rgb(0, 0, 0); fill: rgb(255, 255, 255); stroke-width: 2;"/>
  <path d="M 103.339 156.321 C 103.251 156.321 83.405 156.791 88.562 167.512 C 90.195 170.91 100.031 172.688 100.031 168.944 C 100.031 167.411 104.792 159.736 103.184 159.736 C 102.637 159.736 103.306 156.54 103.306 156.54" style="stroke: rgb(0, 0, 0); stroke-width: 2; fill: none;"/>
  <path d="M 91.026 137.193 C 91.335 137.113 98.811 137.808 103.397 139.198 C 109.343 141.001 112.676 143.604 112.436 143.407 C 111.088 142.302 108.649 139.88 104.194 139.169 C 99.966 138.491 93.725 137.895 92.012 137.193 C 91.75 137.084 91.026 137.193 91.026 137.193 Z" style="stroke: rgb(0, 0, 0); fill: none; stroke-width: 2;"/>
  <path d="M 392.879 114.275 L 392.879 114.275" style="stroke: rgb(0, 0, 0); fill: rgb(216, 216, 216);"/>
  <path d="M 405.831 118.697 C 418.464 118.697 467.801 107.493 474.906 100.854 C 476.29 99.557 485.791 120.414 481.265 124.645 C 479.753 126.062 405.831 118.697 405.831 118.697" style="stroke: rgb(0, 0, 0); stroke-width: 2;"/>
  <path d="M 109.029 232.632 C 109.029 232.632 119.274 227.233 120.664 226.57 C 125.856 224.088 130.901 217.011 134.124 210.852 C 134.622 209.898 141.574 195.495 141.397 195.495 C 136.835 195.495 135.345 191.927 133.027 189.71 C 132.126 188.851 128.197 185.126 129.469 185.126 C 131.265 185.126 140.339 191.96 140.339 192.463 C 140.339 193.305 145.628 194.725 145.628 194.483 C 145.628 191.587 154.748 185.244 154.748 188.141 C 154.748 191.745 140.339 192.899 140.339 196.506 C 140.339 203.961 127.815 224.915 120.265 224.915 C 115.681 224.915 108.338 232.529 108.338 232.529" style="stroke: rgb(0, 0, 0); fill: none; stroke-width: 2;"/>
  <path d="M 288.252 280.98 L 288.252 280.98" style="stroke: rgb(0, 0, 0); fill: rgb(216, 216, 216);"/>
  <path d="M 125.189 236.753 L 125.189 236.753" style="stroke: rgb(0, 0, 0); fill: rgb(216, 216, 216);"/>
  <path d="M 93.377 162.975 C 93.377 162.975 91.345 164.837 91.345 164.43 C 91.345 160.202 92.869 163.945 92.869 163.945" style="stroke: rgb(0, 0, 0); fill: rgb(216, 216, 216);"/>
</svg>