<?xml version="1.0" encoding="utf-8"?>
<svg viewBox="0 0 500 500" xmlns="http://www.w3.org/2000/svg">
  <path d="M 145.649 60.507 C 146.401 60.269 251.786 53.369 291.176 53.369 C 324.47 53.369 360.852 61.205 389.6 75.975 C 419.449 91.312 412.992 115.57 388.194 132.493 C 381.559 137.022 368.915 143.835 361.479 146.771 C 294.284 173.307 211.351 159.227 143.54 142.012 C 128.354 138.158 102.796 134.896 90.11 125.949 C 81.257 119.706 83.112 103.054 88.001 95.609 C 100.229 76.982 123.255 67.614 145.649 60.507 Z" style="stroke: black; fill: none;"/>
  <path style="stroke: black; fill: none;" d="M 408.227 107.526 C 408.227 122.822 388.796 145.578 381.622 157.234 C 354.438 201.408 319.469 243.936 304.609 294.458 C 294.413 329.125 283.097 363.831 278.005 399.475 C 277.583 402.428 274.504 428.18 274.504 428.18 C 274.504 437.515 274.504 446.85 274.504 456.185 C 274.504 457.908 274.504 469.487 274.504 469.487 C 274.504 469.563 273.804 468.787 273.804 468.787 C 273.104 468.787 261.909 468.787 260.502 468.787 C 254.943 468.787 221.995 463.886 221.995 463.886 L 221.295 465.286 C 221.116 465.286 215.747 438.869 215.694 438.682 C 209.793 417.699 202.333 397.254 193.991 377.071 C 170.474 320.177 145.798 263.682 121.878 206.943 C 112.142 183.846 84.072 144.063 84.072 117.328"/>
</svg>