<?xml version="1.0" encoding="utf-8"?>
<svg viewBox="0 0 500 500" xmlns="http://www.w3.org/2000/svg">
  <path d="M 221.773 291.363 C 220.815 291.363 211.826 284.381 211.235 283.7 C 201.344 272.286 190.118 259.261 182.499 246.341 C 165.751 217.943 122.753 153.529 130.991 116.452 C 133.279 106.157 137.853 79.753 151.137 67.527 C 168.708 51.356 207.91 43.354 224.075 49.417 C 246.765 57.926 257.216 97.893 257.216 118.939 C 258.173 70.829 350.473 -0.415 378.062 68.559 C 412.306 154.168 324.486 201.269 275.583 250.173 C 266.561 259.195 236.871 290.406 224.647 290.406 C 223.051 290.406 222.411 296.153 219.857 290.406 L 221.773 291.363 Z M 183.457 350.755 L 222.731 290.406 C 222.731 290.406 236.777 287.214 238.058 286.573 C 248.854 281.174 262.229 267.64 273.5 278.91 C 282.956 288.365 259.193 297.111 254.342 297.111 C 230.98 297.111 194.684 268.641 176.751 286.573 C 164.803 298.522 220.815 308.2 220.815 292.321 C 220.815 292.321 222.958 305.147 223.318 308.035 C 225.757 327.534 209.781 347.233 201.12 364.552 C 194.146 378.5 182.593 403.759 164.448 424.494 C 142.71 449.335 114.173 469.014 108.646 472.936 C 97.417 480.9 75.467 485.045 75.467 485.045" style="stroke: black; fill: none; stroke-width: 2;"/>
</svg>