<?xml version="1.0" encoding="utf-8"?>
<svg viewBox="0 0 500 500" xmlns="http://www.w3.org/2000/svg">
  <path d="M 124.641 33.327 C 42.574 38.545 62.292 91.544 66.948 147.403 C 72.203 210.469 76.124 415.488 76.124 479.141 C 153.106 479.141 228.807 475.208 304.278 475.208 C 338.943 475.208 387.592 482.72 418.352 467.339 C 430.735 461.147 438.235 414.036 441.955 399.157 C 454.209 350.139 471.294 66.804 424.91 32.016 C 400.444 13.669 363.112 17.593 334.436 17.593 C 267.643 17.593 124.641 33.327 124.641 33.327 Z M 106.288 85.247 C 106.288 85.247 106.126 85.256 105.798 85.274 C 105.455 85.292 104.901 85.143 104.129 84.824 C 103.358 84.518 102.962 84.111 102.934 83.61 C 102.906 83.106 103.273 82.6 104.03 82.088 C 104.807 81.592 105.6 81.318 106.417 81.276 C 107.248 81.23 107.961 81.366 108.548 81.682 C 109.138 81.987 109.448 82.395 109.476 82.911 C 109.503 83.428 109.144 83.933 108.403 84.431 C 107.662 84.937 106.956 85.211 106.288 85.247 Z M 118.456 84.587 C 118.456 84.587 118.293 84.596 117.968 84.613 C 117.626 84.632 117.069 84.483 116.299 84.161 C 115.528 83.857 115.132 83.452 115.103 82.947 C 115.076 82.445 115.441 81.937 116.199 81.428 C 116.972 80.932 117.768 80.658 118.585 80.615 C 119.419 80.57 120.126 80.705 120.72 81.022 C 121.307 81.326 121.618 81.734 121.645 82.251 C 121.674 82.766 121.315 83.272 120.574 83.768 C 119.831 84.277 119.124 84.55 118.456 84.587 Z M 130.627 83.926 C 130.627 83.926 130.461 83.935 130.138 83.952 C 129.795 83.971 129.238 83.82 128.468 83.502 C 127.698 83.196 127.299 82.791 127.273 82.287 C 127.247 81.784 127.612 81.277 128.369 80.769 C 129.141 80.269 129.936 79.997 130.754 79.953 C 131.588 79.908 132.296 80.044 132.888 80.361 C 133.476 80.665 133.786 81.073 133.814 81.591 C 133.84 82.105 133.484 82.611 132.743 83.108 C 131.999 83.617 131.294 83.888 130.627 83.926 Z M 142.794 83.264 C 142.794 83.264 142.633 83.272 142.304 83.291 C 141.962 83.311 141.405 83.159 140.634 82.841 C 139.865 82.535 139.467 82.13 139.439 81.626 C 139.412 81.124 139.777 80.617 140.535 80.108 C 141.311 79.608 142.106 79.338 142.922 79.293 C 143.753 79.248 144.467 79.384 145.054 79.699 C 145.647 80.005 145.953 80.414 145.981 80.93 C 146.009 81.445 145.654 81.95 144.908 82.447 C 144.168 82.956 143.463 83.227 142.794 83.264 Z M 154.963 82.603 C 154.963 82.603 154.801 82.612 154.473 82.631 C 154.131 82.648 153.575 82.5 152.803 82.18 C 152.036 81.874 151.637 81.469 151.609 80.967 C 151.582 80.462 151.946 79.957 152.703 79.447 C 153.48 78.949 154.275 78.678 155.09 78.632 C 155.922 78.587 156.633 78.724 157.224 79.039 C 157.816 79.345 158.122 79.753 158.15 80.267 C 158.179 80.784 157.822 81.29 157.079 81.787 C 156.338 82.296 155.633 82.567 154.963 82.603 Z M 167.132 81.943 C 167.132 81.943 166.967 81.953 166.642 81.97 C 166.299 81.988 165.744 81.839 164.972 81.52 C 164.202 81.214 163.805 80.807 163.778 80.306 C 163.751 79.801 164.116 79.296 164.875 78.786 C 165.649 78.289 166.445 78.017 167.261 77.972 C 168.091 77.927 168.804 78.064 169.393 78.378 C 169.983 78.684 170.291 79.092 170.321 79.607 C 170.346 80.124 169.989 80.629 169.246 81.126 C 168.508 81.634 167.8 81.908 167.132 81.943 Z M 179.302 81.282 C 179.302 81.282 179.138 81.292 178.811 81.31 C 178.468 81.327 177.911 81.178 177.141 80.86 C 176.371 80.554 175.974 80.148 175.947 79.645 C 175.92 79.14 176.285 78.636 177.043 78.125 C 177.815 77.628 178.612 77.354 179.429 77.311 C 180.261 77.266 180.972 77.401 181.562 77.718 C 182.15 78.022 182.46 78.43 182.49 78.947 C 182.517 79.462 182.16 79.969 181.417 80.464 C 180.673 80.973 179.97 81.247 179.302 81.282 Z M 191.469 80.623 C 191.469 80.623 191.307 80.632 190.981 80.647 C 190.639 80.668 190.079 80.515 189.312 80.198 C 188.542 79.891 188.144 79.487 188.118 78.982 C 188.089 78.482 188.454 77.974 189.212 77.464 C 189.984 76.965 190.781 76.694 191.598 76.65 C 192.43 76.604 193.139 76.74 193.731 77.058 C 194.319 77.361 194.63 77.771 194.656 78.286 C 194.685 78.801 194.327 79.307 193.586 79.803 C 192.843 80.312 192.139 80.586 191.469 80.623 Z M 203.636 79.962 C 203.636 79.962 203.476 79.969 203.148 79.986 C 202.806 80.007 202.25 79.856 201.48 79.537 C 200.711 79.23 200.311 78.826 200.284 78.323 C 200.257 77.821 200.622 77.313 201.38 76.803 C 202.155 76.306 202.952 76.033 203.767 75.988 C 204.597 75.943 205.31 76.08 205.899 76.396 C 206.488 76.701 206.795 77.11 206.822 77.626 C 206.852 78.14 206.497 78.646 205.752 79.142 C 205.014 79.652 204.308 79.924 203.636 79.962 Z M 215.808 79.3 C 215.808 79.3 215.644 79.309 215.317 79.326 C 214.974 79.345 214.421 79.196 213.647 78.876 C 212.881 78.571 212.48 78.165 212.453 77.662 C 212.426 77.158 212.791 76.652 213.547 76.142 C 214.324 75.645 215.118 75.373 215.935 75.328 C 216.765 75.283 217.478 75.42 218.066 75.735 C 218.659 76.041 218.964 76.449 218.994 76.964 C 219.02 77.481 218.666 77.985 217.923 78.483 C 217.183 78.992 216.477 79.264 215.808 79.3 Z M 227.975 78.639 C 227.975 78.639 227.811 78.648 227.485 78.666 C 227.145 78.684 226.587 78.535 225.818 78.216 C 225.048 77.911 224.65 77.504 224.622 77.001 C 224.593 76.497 224.958 75.992 225.718 75.483 C 226.494 74.984 227.287 74.712 228.104 74.667 C 228.936 74.622 229.647 74.759 230.237 75.074 C 230.825 75.38 231.136 75.788 231.161 76.304 C 231.191 76.82 230.833 77.326 230.092 77.822 C 229.35 78.329 228.645 78.603 227.975 78.639 Z M 240.146 77.979 C 240.146 77.979 239.982 77.987 239.656 78.006 C 239.314 78.024 238.759 77.874 237.986 77.556 C 237.217 77.25 236.817 76.843 236.792 76.341 C 236.765 75.838 237.129 75.331 237.887 74.821 C 238.663 74.323 239.458 74.05 240.273 74.007 C 241.105 73.962 241.816 74.096 242.407 74.414 C 242.994 74.718 243.303 75.127 243.333 75.643 C 243.36 76.159 243.001 76.665 242.26 77.162 C 241.52 77.67 240.812 77.942 240.146 77.979 Z M 252.315 77.318 C 252.315 77.318 252.15 77.327 251.825 77.346 C 251.481 77.363 250.924 77.214 250.157 76.893 C 249.385 76.587 248.988 76.182 248.959 75.68 C 248.934 75.177 249.299 74.669 250.055 74.16 C 250.83 73.663 251.624 73.39 252.443 73.348 C 253.274 73.302 253.984 73.438 254.576 73.753 C 255.165 74.057 255.474 74.466 255.501 74.982 C 255.531 75.497 255.172 76.005 254.429 76.499 C 253.687 77.009 252.982 77.282 252.315 77.318 Z M 264.481 76.658 C 264.481 76.658 264.32 76.665 263.992 76.684 C 263.648 76.703 263.092 76.552 262.324 76.232 C 261.554 75.928 261.156 75.521 261.129 75.019 C 261.101 74.516 261.464 74.009 262.222 73.499 C 263 73.001 263.793 72.73 264.609 72.687 C 265.442 72.64 266.152 72.777 266.743 73.093 C 267.333 73.398 267.641 73.805 267.668 74.321 C 267.696 74.837 267.341 75.342 266.596 75.839 C 265.855 76.349 265.153 76.62 264.481 76.658 Z M 276.651 75.996 C 276.651 75.996 276.49 76.005 276.162 76.023 C 275.817 76.042 275.261 75.891 274.492 75.573 C 273.723 75.267 273.324 74.863 273.297 74.358 C 273.27 73.855 273.635 73.349 274.393 72.84 C 275.167 72.341 275.964 72.069 276.779 72.024 C 277.611 71.979 278.324 72.116 278.912 72.43 C 279.503 72.737 279.809 73.144 279.838 73.66 C 279.866 74.176 279.51 74.683 278.766 75.178 C 278.026 75.688 277.319 75.96 276.651 75.996 Z M 288.819 75.335 C 288.819 75.335 288.655 75.344 288.331 75.362 C 287.989 75.38 287.432 75.23 286.662 74.913 C 285.893 74.606 285.494 74.202 285.465 73.697 C 285.438 73.194 285.803 72.688 286.561 72.179 C 287.336 71.68 288.132 71.408 288.947 71.363 C 289.781 71.318 290.49 71.455 291.082 71.771 C 291.67 72.076 291.979 72.485 292.006 72.999 C 292.036 73.515 291.676 74.022 290.937 74.518 C 290.194 75.027 289.487 75.299 288.819 75.335 Z M 300.991 74.675 C 300.991 74.675 300.823 74.684 300.501 74.701 C 300.155 74.72 299.601 74.57 298.83 74.252 C 298.06 73.945 297.662 73.539 297.635 73.037 C 297.61 72.534 297.973 72.028 298.731 71.516 C 299.508 71.02 300.302 70.748 301.118 70.703 C 301.949 70.658 302.661 70.794 303.25 71.11 C 303.839 71.413 304.147 71.825 304.176 72.339 C 304.204 72.855 303.847 73.361 303.103 73.857 C 302.366 74.365 301.657 74.639 300.991 74.675 Z M 313.159 74.015 C 313.159 74.015 312.993 74.023 312.669 74.041 C 312.327 74.06 311.766 73.911 311 73.592 C 310.228 73.284 309.832 72.879 309.805 72.377 C 309.776 71.873 310.143 71.367 310.899 70.855 C 311.673 70.36 312.47 70.086 313.286 70.043 C 314.119 69.998 314.828 70.133 315.42 70.45 C 316.009 70.754 316.317 71.162 316.344 71.679 C 316.375 72.192 316.017 72.7 315.275 73.196 C 314.532 73.705 313.827 73.978 313.159 74.015 Z M 325.325 73.354 C 325.325 73.354 325.163 73.363 324.836 73.379 C 324.493 73.399 323.937 73.248 323.165 72.93 C 322.399 72.623 321.998 72.219 321.971 71.714 C 321.943 71.212 322.309 70.704 323.067 70.196 C 323.843 69.697 324.638 69.425 325.452 69.382 C 326.285 69.335 326.996 69.472 327.588 69.789 C 328.177 70.093 328.485 70.501 328.512 71.019 C 328.542 71.533 328.184 72.039 327.441 72.536 C 326.7 73.044 325.995 73.316 325.325 73.354 Z M 337.493 72.693 C 337.493 72.693 337.335 72.7 337.004 72.718 C 336.661 72.738 336.107 72.587 335.335 72.269 C 334.567 71.963 334.168 71.558 334.141 71.054 C 334.113 70.552 334.479 70.044 335.237 69.536 C 336.012 69.036 336.808 68.764 337.624 68.719 C 338.455 68.675 339.167 68.811 339.756 69.126 C 340.345 69.432 340.653 69.842 340.682 70.358 C 340.71 70.873 340.356 71.378 339.609 71.875 C 338.87 72.383 338.165 72.655 337.493 72.693 Z M 349.665 72.031 C 349.665 72.031 349.499 72.04 349.175 72.058 C 348.831 72.076 348.277 71.927 347.503 71.608 C 346.734 71.302 346.336 70.897 346.309 70.395 C 346.284 69.89 346.647 69.384 347.405 68.875 C 348.182 68.376 348.976 68.105 349.79 68.06 C 350.623 68.015 351.335 68.152 351.923 68.466 C 352.512 68.772 352.821 69.181 352.85 69.695 C 352.878 70.212 352.522 70.717 351.779 71.214 C 351.04 71.724 350.331 71.995 349.665 72.031 Z M 361.833 71.37 C 361.833 71.37 361.669 71.38 361.343 71.398 C 361.001 71.416 360.445 71.267 359.676 70.947 C 358.905 70.642 358.506 70.235 358.48 69.734 C 358.451 69.229 358.817 68.724 359.575 68.214 C 360.352 67.716 361.146 67.445 361.96 67.4 C 362.793 67.355 363.505 67.492 364.094 67.806 C 364.683 68.112 364.993 68.52 365.018 69.035 C 365.048 69.552 364.69 70.057 363.949 70.554 C 363.208 71.062 362.501 71.335 361.833 71.37 Z M 374.003 70.71 C 374.003 70.71 373.839 70.719 373.513 70.738 C 373.169 70.755 372.612 70.606 371.843 70.287 C 371.073 69.982 370.676 69.575 370.649 69.073 C 370.621 68.568 370.987 68.064 371.745 67.553 C 372.518 67.055 373.314 66.782 374.132 66.739 C 374.961 66.694 375.673 66.829 376.264 67.145 C 376.851 67.45 377.161 67.857 377.189 68.375 C 377.216 68.891 376.859 69.397 376.117 69.893 C 375.376 70.401 374.671 70.675 374.003 70.71 Z M 386.172 70.05 C 386.172 70.05 386.007 70.059 385.683 70.075 C 385.339 70.095 384.783 69.945 384.015 69.625 C 383.243 69.319 382.845 68.915 382.818 68.41 C 382.789 67.908 383.155 67.402 383.913 66.892 C 384.686 66.393 385.482 66.122 386.299 66.078 C 387.132 66.033 387.841 66.168 388.432 66.484 C 389.021 66.789 389.331 67.198 389.359 67.714 C 389.386 68.229 389.029 68.737 388.287 69.231 C 387.543 69.74 386.84 70.014 386.172 70.05 Z M 398.339 69.39 C 398.339 69.39 398.175 69.397 397.849 69.414 C 397.507 69.434 396.949 69.284 396.179 68.965 C 395.411 68.658 395.012 68.254 394.985 67.75 C 394.955 67.249 395.321 66.741 396.079 66.231 C 396.856 65.734 397.65 65.461 398.464 65.417 C 399.299 65.371 400.011 65.507 400.599 65.825 C 401.189 66.128 401.497 66.538 401.526 67.053 C 401.554 67.568 401.197 68.074 400.455 68.57 C 399.711 69.08 399.01 69.352 398.339 69.39 Z M 111.765 138.567 C 111.765 138.567 111.602 138.576 111.277 138.595 C 110.932 138.612 110.377 138.463 109.608 138.144 C 108.837 137.839 108.439 137.433 108.413 136.93 C 108.385 136.426 108.751 135.92 109.507 135.411 C 110.283 134.912 111.078 134.641 111.894 134.596 C 112.725 134.551 113.438 134.688 114.027 135.002 C 114.614 135.309 114.925 135.717 114.952 136.231 C 114.98 136.749 114.623 137.254 113.881 137.751 C 113.142 138.26 112.433 138.532 111.765 138.567 Z M 123.934 137.907 C 123.934 137.907 123.772 137.916 123.445 137.934 C 123.104 137.952 122.546 137.802 121.776 137.484 C 121.006 137.178 120.608 136.772 120.58 136.27 C 120.554 135.765 120.919 135.26 121.677 134.751 C 122.451 134.252 123.247 133.981 124.064 133.936 C 124.895 133.891 125.604 134.027 126.198 134.341 C 126.785 134.648 127.096 135.056 127.121 135.57 C 127.151 136.088 126.792 136.594 126.051 137.09 C 125.309 137.6 124.602 137.871 123.934 137.907 Z M 136.103 137.247 C 136.103 137.247 135.938 137.256 135.614 137.273 C 135.273 137.291 134.715 137.142 133.945 136.824 C 133.176 136.517 132.777 136.112 132.75 135.609 C 132.725 135.104 133.088 134.6 133.846 134.088 C 134.62 133.592 135.413 133.32 136.234 133.275 C 137.064 133.23 137.773 133.365 138.365 133.682 C 138.954 133.986 139.262 134.395 139.293 134.911 C 139.319 135.427 138.961 135.933 138.219 136.429 C 137.476 136.937 136.773 137.21 136.103 137.247 Z M 148.272 136.586 C 148.272 136.586 148.11 136.596 147.783 136.613 C 147.439 136.631 146.881 136.481 146.113 136.163 C 145.343 135.855 144.945 135.451 144.918 134.948 C 144.891 134.445 145.256 133.939 146.013 133.428 C 146.789 132.932 147.584 132.657 148.399 132.614 C 149.231 132.569 149.944 132.704 150.533 133.022 C 151.124 133.325 151.431 133.734 151.458 134.251 C 151.486 134.764 151.132 135.272 150.387 135.767 C 149.647 136.276 148.942 136.551 148.272 136.586 Z M 160.441 135.926 C 160.441 135.926 160.277 135.935 159.951 135.951 C 159.609 135.972 159.052 135.82 158.281 135.501 C 157.515 135.195 157.112 134.79 157.087 134.286 C 157.06 133.784 157.425 133.277 158.181 132.767 C 158.958 132.269 159.754 131.998 160.569 131.954 C 161.4 131.908 162.112 132.044 162.702 132.361 C 163.293 132.665 163.6 133.074 163.627 133.59 C 163.657 134.104 163.3 134.61 162.557 135.108 C 161.815 135.615 161.111 135.888 160.441 135.926 Z M 172.609 135.264 C 172.609 135.264 172.446 135.272 172.12 135.29 C 171.776 135.311 171.221 135.16 170.452 134.841 C 169.68 134.535 169.283 134.13 169.256 133.626 C 169.229 133.124 169.594 132.616 170.352 132.108 C 171.128 131.609 171.923 131.337 172.74 131.292 C 173.57 131.247 174.283 131.383 174.871 131.699 C 175.459 132.004 175.769 132.413 175.795 132.93 C 175.825 133.445 175.466 133.949 174.724 134.447 C 173.986 134.956 173.279 135.227 172.609 135.264 Z M 184.78 134.603 C 184.78 134.603 184.615 134.612 184.29 134.63 C 183.945 134.648 183.387 134.499 182.619 134.18 C 181.849 133.874 181.451 133.469 181.424 132.966 C 181.398 132.461 181.763 131.956 182.521 131.447 C 183.295 130.948 184.09 130.676 184.907 130.631 C 185.739 130.587 186.45 130.723 187.039 131.038 C 187.628 131.343 187.937 131.753 187.966 132.268 C 187.994 132.784 187.638 133.289 186.895 133.786 C 186.152 134.295 185.448 134.567 184.78 134.603 Z M 196.947 133.942 C 196.947 133.942 196.784 133.952 196.459 133.97 C 196.116 133.987 195.558 133.838 194.791 133.519 C 194.019 133.214 193.622 132.807 193.595 132.305 C 193.565 131.801 193.931 131.295 194.69 130.785 C 195.462 130.288 196.258 130.016 197.076 129.971 C 197.908 129.926 198.619 130.063 199.21 130.378 C 199.797 130.684 200.108 131.092 200.133 131.607 C 200.163 132.123 199.805 132.628 199.063 133.125 C 198.321 133.633 197.617 133.907 196.947 133.942 Z M 209.115 133.282 C 209.115 133.282 208.954 133.291 208.626 133.31 C 208.284 133.327 207.727 133.178 206.958 132.859 C 206.188 132.554 205.789 132.146 205.762 131.645 C 205.732 131.141 206.098 130.635 206.858 130.124 C 207.634 129.627 208.429 129.355 209.241 129.311 C 210.076 129.266 210.787 129.401 211.377 129.717 C 211.967 130.022 212.275 130.43 212.301 130.946 C 212.33 131.462 211.974 131.969 211.232 132.464 C 210.49 132.972 209.785 133.246 209.115 133.282 Z M 221.286 132.622 C 221.286 132.622 221.121 132.631 220.796 132.647 C 220.451 132.667 219.898 132.516 219.124 132.197 C 218.359 131.891 217.957 131.486 217.93 130.983 C 217.903 130.48 218.269 129.973 219.025 129.463 C 219.803 128.965 220.598 128.694 221.412 128.65 C 222.243 128.605 222.956 128.74 223.544 129.056 C 224.136 129.361 224.443 129.769 224.472 130.285 C 224.497 130.801 224.143 131.306 223.401 131.803 C 222.661 132.313 221.954 132.584 221.286 132.622 Z M 233.453 131.961 C 233.453 131.961 233.289 131.969 232.963 131.986 C 232.622 132.006 232.066 131.855 231.294 131.537 C 230.525 131.231 230.128 130.826 230.101 130.322 C 230.071 129.819 230.437 129.313 231.195 128.803 C 231.97 128.305 232.766 128.033 233.581 127.988 C 234.414 127.943 235.125 128.08 235.716 128.394 C 236.303 128.701 236.614 129.108 236.641 129.625 C 236.668 130.14 236.311 130.646 235.569 131.142 C 234.827 131.652 234.123 131.924 233.453 131.961 Z M 245.624 131.299 C 245.624 131.299 245.46 131.309 245.134 131.326 C 244.79 131.343 244.233 131.194 243.463 130.876 C 242.694 130.57 242.295 130.166 242.27 129.661 C 242.242 129.158 242.608 128.652 243.366 128.143 C 244.141 127.645 244.937 127.372 245.751 127.327 C 246.583 127.282 247.295 127.419 247.885 127.735 C 248.471 128.04 248.781 128.449 248.81 128.963 C 248.837 129.479 248.478 129.986 247.738 130.481 C 246.998 130.991 246.291 131.264 245.624 131.299 Z M 257.792 130.639 C 257.792 130.639 257.629 130.648 257.303 130.666 C 256.961 130.684 256.403 130.534 255.634 130.216 C 254.865 129.91 254.466 129.503 254.439 129.001 C 254.411 128.498 254.777 127.991 255.533 127.482 C 256.308 126.984 257.104 126.712 257.919 126.667 C 258.753 126.621 259.462 126.759 260.055 127.074 C 260.642 127.38 260.952 127.788 260.979 128.303 C 261.007 128.818 260.649 129.325 259.909 129.822 C 259.165 130.331 258.46 130.603 257.792 130.639 Z M 269.959 129.979 C 269.959 129.979 269.796 129.987 269.468 130.005 C 269.127 130.024 268.571 129.874 267.8 129.556 C 267.033 129.249 266.634 128.842 266.604 128.34 C 266.577 127.837 266.943 127.331 267.701 126.819 C 268.476 126.323 269.272 126.052 270.085 126.007 C 270.919 125.962 271.631 126.097 272.219 126.413 C 272.811 126.717 273.118 127.126 273.145 127.642 C 273.174 128.16 272.817 128.664 272.075 129.162 C 271.333 129.669 270.63 129.942 269.959 129.979 Z M 282.128 129.318 C 282.128 129.318 281.966 129.326 281.638 129.344 C 281.295 129.363 280.739 129.214 279.969 128.895 C 279.201 128.588 278.803 128.182 278.773 127.68 C 278.746 127.176 279.112 126.671 279.87 126.16 C 280.646 125.661 281.441 125.389 282.257 125.346 C 283.089 125.301 283.801 125.436 284.388 125.753 C 284.98 126.057 285.287 126.465 285.316 126.982 C 285.343 127.497 284.988 128.004 284.243 128.499 C 283.503 129.008 282.8 129.281 282.128 129.318 Z M 294.298 128.657 C 294.298 128.657 294.133 128.667 293.809 128.683 C 293.466 128.702 292.909 128.551 292.137 128.233 C 291.369 127.927 290.971 127.522 290.942 127.018 C 290.915 126.516 291.281 126.008 292.039 125.5 C 292.814 125 293.61 124.728 294.425 124.686 C 295.258 124.639 295.969 124.775 296.56 125.093 C 297.147 125.396 297.458 125.805 297.485 126.322 C 297.514 126.836 297.155 127.342 296.414 127.838 C 295.671 128.347 294.966 128.619 294.298 128.657 Z M 306.465 127.995 C 306.465 127.995 306.301 128.004 305.976 128.023 C 305.633 128.041 305.079 127.891 304.308 127.572 C 303.537 127.267 303.141 126.861 303.114 126.358 C 303.086 125.855 303.452 125.347 304.209 124.839 C 304.985 124.34 305.781 124.069 306.595 124.023 C 307.427 123.978 308.139 124.116 308.728 124.43 C 309.317 124.737 309.626 125.144 309.655 125.659 C 309.68 126.176 309.323 126.681 308.581 127.179 C 307.842 127.687 307.136 127.959 306.465 127.995 Z M 318.635 127.335 C 318.635 127.335 318.472 127.343 318.146 127.362 C 317.803 127.38 317.245 127.23 316.476 126.912 C 315.707 126.606 315.309 126.201 315.281 125.697 C 315.254 125.193 315.62 124.688 316.378 124.178 C 317.152 123.679 317.948 123.409 318.763 123.364 C 319.595 123.319 320.307 123.455 320.896 123.769 C 321.485 124.076 321.794 124.484 321.823 124.998 C 321.852 125.516 321.493 126.021 320.752 126.518 C 320.009 127.027 319.304 127.298 318.635 127.335 Z M 330.803 126.674 C 330.803 126.674 330.64 126.683 330.312 126.701 C 329.971 126.719 329.415 126.57 328.643 126.251 C 327.877 125.945 327.476 125.539 327.448 125.037 C 327.421 124.532 327.787 124.028 328.545 123.518 C 329.32 123.02 330.115 122.748 330.931 122.703 C 331.763 122.658 332.475 122.794 333.063 123.109 C 333.655 123.414 333.961 123.823 333.989 124.339 C 334.018 124.855 333.661 125.361 332.919 125.857 C 332.177 126.365 331.474 126.638 330.803 126.674 Z M 342.97 126.013 C 342.97 126.013 342.812 126.024 342.482 126.04 C 342.141 126.058 341.585 125.909 340.813 125.591 C 340.047 125.283 339.645 124.879 339.619 124.376 C 339.589 123.872 339.957 123.367 340.716 122.856 C 341.49 122.36 342.286 122.085 343.099 122.042 C 343.933 121.997 344.645 122.132 345.234 122.45 C 345.823 122.753 346.132 123.162 346.159 123.678 C 346.188 124.194 345.831 124.7 345.087 125.195 C 344.347 125.704 343.642 125.979 342.97 126.013 Z M 355.141 125.353 C 355.141 125.353 354.978 125.363 354.652 125.379 C 354.309 125.398 353.754 125.247 352.981 124.929 C 352.212 124.622 351.815 124.218 351.787 123.714 C 351.76 123.212 352.126 122.704 352.884 122.195 C 353.66 121.697 354.454 121.424 355.269 121.382 C 356.101 121.334 356.813 121.472 357.402 121.789 C 357.991 122.093 358.299 122.502 358.329 123.017 C 358.356 123.532 357.999 124.04 357.258 124.535 C 356.516 125.043 355.809 125.318 355.141 125.353 Z M 367.309 124.694 C 367.309 124.694 367.146 124.7 366.82 124.718 C 366.478 124.739 365.923 124.586 365.152 124.269 C 364.383 123.962 363.985 123.558 363.957 123.054 C 363.928 122.552 364.294 122.044 365.051 121.534 C 365.828 121.036 366.622 120.765 367.437 120.72 C 368.272 120.675 368.983 120.811 369.572 121.126 C 370.161 121.432 370.47 121.841 370.497 122.357 C 370.526 122.872 370.169 123.377 369.426 123.874 C 368.685 124.384 367.979 124.655 367.309 124.694 Z M 379.479 124.031 C 379.479 124.031 379.316 124.04 378.991 124.057 C 378.648 124.076 378.089 123.927 377.32 123.608 C 376.55 123.301 376.153 122.897 376.125 122.393 C 376.098 121.889 376.464 121.384 377.222 120.874 C 377.996 120.376 378.791 120.104 379.608 120.059 C 380.44 120.014 381.151 120.151 381.74 120.466 C 382.329 120.771 382.64 121.18 382.667 121.696 C 382.694 122.212 382.335 122.717 381.596 123.214 C 380.851 123.723 380.147 123.995 379.479 124.031 Z M 391.649 123.37 C 391.649 123.37 391.486 123.379 391.159 123.397 C 390.818 123.415 390.261 123.266 389.492 122.947 C 388.72 122.642 388.323 122.235 388.293 121.732 C 388.268 121.229 388.634 120.723 389.392 120.214 C 390.163 119.715 390.959 119.443 391.777 119.398 C 392.61 119.353 393.319 119.49 393.91 119.806 C 394.5 120.111 394.808 120.52 394.837 121.035 C 394.865 121.551 394.507 122.056 393.766 122.553 C 393.021 123.06 392.317 123.334 391.649 123.37 Z M 403.815 122.71 C 403.815 122.71 403.654 122.719 403.326 122.738 C 402.984 122.755 402.427 122.606 401.658 122.287 C 400.888 121.982 400.49 121.574 400.46 121.073 C 400.434 120.568 400.798 120.062 401.556 119.552 C 402.331 119.055 403.127 118.781 403.943 118.739 C 404.778 118.693 405.489 118.828 406.078 119.145 C 406.668 119.448 406.975 119.858 407.003 120.374 C 407.032 120.89 406.675 121.396 405.931 121.893 C 405.191 122.4 404.487 122.674 403.815 122.71 Z M 108.85 196.348 C 108.85 196.348 108.686 196.358 108.36 196.376 C 108.019 196.393 107.461 196.245 106.691 195.926 C 105.923 195.62 105.523 195.213 105.497 194.712 C 105.469 194.207 105.836 193.702 106.593 193.19 C 107.369 192.694 108.165 192.42 108.979 192.378 C 109.811 192.333 110.523 192.468 111.112 192.785 C 111.7 193.089 112.009 193.497 112.038 194.012 C 112.065 194.529 111.706 195.035 110.966 195.529 C 110.226 196.039 109.519 196.313 108.85 196.348 Z M 121.021 195.689 C 121.021 195.689 120.855 195.698 120.531 195.714 C 120.185 195.734 119.629 195.582 118.859 195.265 C 118.089 194.958 117.693 194.554 117.666 194.049 C 117.638 193.547 118.003 193.039 118.76 192.53 C 119.536 192.032 120.33 191.76 121.147 191.717 C 121.979 191.67 122.689 191.807 123.279 192.124 C 123.869 192.428 124.178 192.836 124.207 193.353 C 124.235 193.867 123.878 194.374 123.135 194.869 C 122.394 195.379 121.688 195.653 121.021 195.689 Z M 133.188 195.027 C 133.188 195.027 133.024 195.035 132.699 195.053 C 132.356 195.073 131.799 194.922 131.029 194.604 C 130.261 194.297 129.863 193.893 129.836 193.388 C 129.806 192.886 130.172 192.379 130.931 191.87 C 131.703 191.371 132.5 191.099 133.316 191.054 C 134.149 191.009 134.858 191.146 135.451 191.461 C 136.038 191.767 136.349 192.175 136.376 192.693 C 136.403 193.207 136.046 193.713 135.304 194.21 C 134.561 194.718 133.858 194.99 133.188 195.027 Z M 145.356 194.366 C 145.356 194.366 145.195 194.374 144.864 194.392 C 144.524 194.411 143.968 194.261 143.196 193.943 C 142.43 193.637 142.029 193.232 142.002 192.727 C 141.973 192.225 142.34 191.719 143.099 191.209 C 143.874 190.71 144.67 190.439 145.485 190.394 C 146.316 190.349 147.029 190.485 147.616 190.801 C 148.207 191.106 148.515 191.516 148.542 192.03 C 148.571 192.547 148.213 193.052 147.471 193.549 C 146.73 194.057 146.026 194.329 145.356 194.366 Z M 157.525 193.705 C 157.525 193.705 157.364 193.714 157.037 193.733 C 156.692 193.75 156.137 193.602 155.365 193.282 C 154.6 192.977 154.198 192.57 154.171 192.069 C 154.143 191.564 154.51 191.058 155.268 190.549 C 156.042 190.051 156.839 189.778 157.653 189.733 C 158.484 189.689 159.197 189.825 159.786 190.141 C 160.377 190.446 160.684 190.855 160.713 191.37 C 160.74 191.886 160.384 192.391 159.642 192.889 C 158.899 193.395 158.195 193.669 157.525 193.705 Z M 169.693 193.045 C 169.693 193.045 169.529 193.054 169.203 193.072 C 168.861 193.09 168.307 192.941 167.535 192.622 C 166.766 192.317 166.369 191.909 166.342 191.408 C 166.312 190.903 166.678 190.397 167.435 189.887 C 168.213 189.39 169.006 189.117 169.82 189.074 C 170.655 189.029 171.366 189.164 171.954 189.48 C 172.544 189.785 172.853 190.192 172.88 190.709 C 172.909 191.226 172.552 191.73 171.81 192.228 C 171.069 192.736 170.364 193.009 169.693 193.045 Z M 181.862 192.384 C 181.862 192.384 181.699 192.393 181.374 192.412 C 181.031 192.429 180.472 192.28 179.704 191.96 C 178.935 191.654 178.538 191.249 178.511 190.745 C 178.481 190.242 178.849 189.736 179.605 189.227 C 180.38 188.729 181.176 188.456 181.992 188.413 C 182.824 188.368 183.532 188.503 184.123 188.819 C 184.712 189.124 185.022 189.532 185.051 190.049 C 185.078 190.564 184.719 191.072 183.979 191.566 C 183.234 192.075 182.532 192.348 181.862 192.384 Z M 194.033 191.724 C 194.033 191.724 193.868 191.734 193.543 191.749 C 193.202 191.769 192.643 191.617 191.875 191.299 C 191.106 190.993 190.707 190.588 190.677 190.085 C 190.65 189.583 191.016 189.076 191.774 188.566 C 192.548 188.066 193.342 187.796 194.161 187.751 C 194.994 187.706 195.703 187.842 196.294 188.159 C 196.883 188.463 197.193 188.872 197.219 189.388 C 197.248 189.903 196.89 190.409 196.15 190.905 C 195.405 191.415 194.701 191.686 194.033 191.724 Z M 206.199 191.061 C 206.199 191.061 206.037 191.072 205.709 191.088 C 205.367 191.108 204.811 190.958 204.042 190.639 C 203.273 190.332 202.873 189.928 202.843 189.425 C 202.818 188.922 203.182 188.415 203.941 187.905 C 204.717 187.408 205.511 187.135 206.328 187.09 C 207.161 187.045 207.872 187.183 208.46 187.497 C 209.052 187.803 209.359 188.212 209.386 188.727 C 209.415 189.242 209.058 189.748 208.316 190.244 C 207.573 190.754 206.87 191.026 206.199 191.061 Z M 218.37 190.402 C 218.37 190.402 218.208 190.411 217.88 190.429 C 217.537 190.446 216.98 190.297 216.21 189.979 C 215.441 189.673 215.042 189.267 215.014 188.764 C 214.989 188.26 215.353 187.754 216.111 187.244 C 216.886 186.747 217.681 186.475 218.496 186.43 C 219.33 186.385 220.041 186.522 220.629 186.837 C 221.223 187.143 221.528 187.551 221.557 188.065 C 221.584 188.582 221.229 189.087 220.485 189.584 C 219.744 190.094 219.039 190.366 218.37 190.402 Z M 230.538 189.742 C 230.538 189.742 230.374 189.75 230.047 189.768 C 229.706 189.787 229.151 189.636 228.379 189.319 C 227.607 189.012 227.213 188.606 227.183 188.103 C 227.156 187.599 227.522 187.094 228.28 186.585 C 229.056 186.086 229.85 185.814 230.665 185.769 C 231.498 185.724 232.209 185.861 232.8 186.176 C 233.389 186.482 233.699 186.89 233.725 187.406 C 233.754 187.921 233.396 188.428 232.654 188.923 C 231.913 189.431 231.204 189.705 230.538 189.742 Z M 242.705 189.081 C 242.705 189.081 242.543 189.089 242.217 189.107 C 241.875 189.126 241.32 188.976 240.548 188.658 C 239.778 188.351 239.381 187.945 239.354 187.442 C 239.327 186.94 239.693 186.433 240.451 185.922 C 241.225 185.425 242.021 185.152 242.836 185.108 C 243.667 185.063 244.38 185.198 244.969 185.516 C 245.558 185.819 245.867 186.229 245.896 186.745 C 245.923 187.262 245.564 187.767 244.823 188.262 C 244.082 188.771 243.375 189.044 242.705 189.081 Z M 254.876 188.42 C 254.876 188.42 254.713 188.429 254.386 188.444 C 254.044 188.465 253.486 188.315 252.716 187.995 C 251.946 187.69 251.55 187.284 251.522 186.781 C 251.495 186.279 251.861 185.771 252.619 185.262 C 253.391 184.764 254.187 184.491 255.003 184.448 C 255.836 184.401 256.548 184.539 257.137 184.855 C 257.726 185.158 258.036 185.568 258.064 186.084 C 258.091 186.599 257.734 187.104 256.993 187.601 C 256.25 188.11 255.544 188.384 254.876 188.42 Z M 267.042 187.76 C 267.042 187.76 266.882 187.767 266.553 187.786 C 266.212 187.805 265.656 187.654 264.884 187.334 C 264.117 187.03 263.716 186.624 263.689 186.121 C 263.662 185.618 264.027 185.11 264.786 184.601 C 265.56 184.103 266.356 183.831 267.171 183.786 C 268.006 183.742 268.716 183.878 269.306 184.195 C 269.895 184.499 270.203 184.907 270.231 185.424 C 270.259 185.939 269.904 186.443 269.16 186.941 C 268.418 187.451 267.714 187.722 267.042 187.76 Z M 279.211 187.098 C 279.211 187.098 279.051 187.106 278.723 187.125 C 278.38 187.143 277.824 186.993 277.054 186.675 C 276.285 186.369 275.886 185.964 275.86 185.46 C 275.833 184.956 276.199 184.45 276.955 183.942 C 277.73 183.442 278.527 183.171 279.342 183.126 C 280.171 183.081 280.886 183.218 281.475 183.532 C 282.064 183.839 282.373 184.246 282.398 184.762 C 282.427 185.278 282.072 185.784 281.327 186.281 C 280.588 186.79 279.882 187.061 279.211 187.098 Z M 291.382 186.437 C 291.382 186.437 291.218 186.445 290.893 186.464 C 290.548 186.482 289.996 186.332 289.223 186.014 C 288.451 185.708 288.055 185.301 288.028 184.799 C 288.001 184.296 288.367 183.79 289.124 183.281 C 289.901 182.781 290.694 182.51 291.51 182.465 C 292.341 182.42 293.053 182.557 293.642 182.871 C 294.232 183.178 294.539 183.587 294.57 184.101 C 294.595 184.618 294.24 185.124 293.499 185.62 C 292.756 186.128 292.05 186.4 291.382 186.437 Z M 303.55 185.776 C 303.55 185.776 303.386 185.786 303.061 185.803 C 302.719 185.821 302.162 185.672 301.393 185.353 C 300.623 185.047 300.225 184.64 300.198 184.14 C 300.169 183.635 300.533 183.13 301.291 182.618 C 302.069 182.122 302.862 181.848 303.678 181.805 C 304.513 181.76 305.224 181.896 305.813 182.211 C 306.402 182.516 306.71 182.924 306.738 183.44 C 306.767 183.957 306.408 184.463 305.666 184.96 C 304.926 185.467 304.22 185.741 303.55 185.776 Z M 315.72 185.116 C 315.72 185.116 315.557 185.126 315.232 185.143 C 314.889 185.161 314.33 185.012 313.561 184.691 C 312.791 184.386 312.393 183.981 312.366 183.477 C 312.339 182.974 312.704 182.467 313.463 181.958 C 314.236 181.462 315.032 181.188 315.848 181.145 C 316.68 181.1 317.389 181.235 317.981 181.552 C 318.57 181.856 318.878 182.263 318.908 182.78 C 318.935 183.295 318.576 183.802 317.836 184.297 C 317.092 184.807 316.388 185.081 315.72 185.116 Z M 327.888 184.456 C 327.888 184.456 327.727 184.465 327.399 184.481 C 327.056 184.501 326.5 184.349 325.728 184.032 C 324.961 183.725 324.56 183.321 324.534 182.816 C 324.507 182.314 324.872 181.807 325.629 181.298 C 326.404 180.799 327.2 180.527 328.016 180.484 C 328.847 180.437 329.559 180.574 330.149 180.891 C 330.741 181.195 331.045 181.603 331.074 182.12 C 331.103 182.634 330.746 183.141 330.004 183.637 C 329.262 184.146 328.556 184.418 327.888 184.456 Z M 340.056 183.794 C 340.056 183.794 339.893 183.802 339.567 183.82 C 339.224 183.841 338.67 183.688 337.899 183.371 C 337.129 183.064 336.731 182.66 336.704 182.155 C 336.675 181.654 337.039 181.147 337.797 180.637 C 338.574 180.138 339.368 179.867 340.184 179.822 C 341.017 179.777 341.727 179.913 342.317 180.228 C 342.909 180.534 343.216 180.944 343.244 181.458 C 343.271 181.974 342.916 182.48 342.171 182.976 C 341.432 183.485 340.728 183.757 340.056 183.794 Z M 352.226 183.133 C 352.226 183.133 352.063 183.142 351.737 183.159 C 351.394 183.178 350.838 183.03 350.066 182.71 C 349.297 182.403 348.899 181.999 348.872 181.495 C 348.845 180.992 349.21 180.486 349.968 179.976 C 350.742 179.479 351.539 179.206 352.354 179.161 C 353.186 179.116 353.898 179.253 354.487 179.569 C 355.075 179.873 355.384 180.283 355.414 180.797 C 355.441 181.314 355.082 181.819 354.341 182.316 C 353.6 182.825 352.894 183.097 352.226 183.133 Z M 364.394 182.473 C 364.394 182.473 364.231 182.482 363.906 182.499 C 363.565 182.518 363.008 182.369 362.237 182.049 C 361.465 181.745 361.069 181.337 361.04 180.835 C 361.013 180.331 361.378 179.825 362.136 179.315 C 362.912 178.818 363.707 178.546 364.522 178.501 C 365.354 178.456 366.065 178.591 366.657 178.908 C 367.245 179.213 367.554 179.622 367.582 180.137 C 367.611 180.654 367.252 181.158 366.51 181.656 C 365.77 182.163 365.062 182.437 364.394 182.473 Z M 376.564 181.812 C 376.564 181.812 376.401 181.821 376.074 181.84 C 375.732 181.857 375.173 181.708 374.407 181.389 C 373.635 181.082 373.237 180.677 373.212 180.175 C 373.183 179.67 373.55 179.165 374.306 178.655 C 375.078 178.157 375.874 177.883 376.693 177.841 C 377.524 177.796 378.233 177.93 378.825 178.247 C 379.413 178.552 379.722 178.959 379.752 179.477 C 379.779 179.992 379.422 180.498 378.678 180.994 C 377.936 181.503 377.232 181.776 376.564 181.812 Z M 388.734 181.152 C 388.734 181.152 388.569 181.16 388.244 181.177 C 387.901 181.197 387.341 181.045 386.575 180.727 C 385.803 180.421 385.407 180.016 385.38 179.512 C 385.353 179.011 385.716 178.503 386.474 177.994 C 387.248 177.494 388.045 177.224 388.861 177.18 C 389.694 177.134 390.403 177.27 390.993 177.586 C 391.584 177.891 391.892 178.3 391.922 178.816 C 391.95 179.331 391.592 179.836 390.85 180.333 C 390.107 180.842 389.402 181.113 388.734 181.152 Z M 400.9 180.491 C 400.9 180.491 400.739 180.498 400.411 180.516 C 400.068 180.536 399.513 180.386 398.742 180.066 C 397.974 179.76 397.573 179.355 397.546 178.852 C 397.519 178.35 397.884 177.843 398.641 177.333 C 399.418 176.835 400.212 176.563 401.028 176.518 C 401.862 176.473 402.573 176.609 403.163 176.925 C 403.752 177.23 404.06 177.639 404.087 178.155 C 404.117 178.67 403.76 179.176 403.016 179.672 C 402.276 180.182 401.57 180.453 400.9 180.491 Z M 107.616 259.355 C 107.616 259.355 107.454 259.364 107.127 259.38 C 106.785 259.399 106.23 259.248 105.458 258.93 C 104.688 258.624 104.288 258.219 104.262 257.715 C 104.236 257.213 104.601 256.705 105.359 256.196 C 106.133 255.698 106.93 255.426 107.745 255.383 C 108.576 255.336 109.288 255.473 109.878 255.79 C 110.465 256.094 110.774 256.502 110.803 257.018 C 110.831 257.533 110.472 258.04 109.732 258.536 C 108.992 259.045 108.284 259.319 107.616 259.355 Z M 119.786 258.693 C 119.786 258.693 119.621 258.701 119.295 258.719 C 118.954 258.739 118.396 258.587 117.627 258.27 C 116.856 257.963 116.459 257.559 116.43 257.054 C 116.404 256.552 116.769 256.046 117.525 255.536 C 118.301 255.037 119.095 254.766 119.914 254.721 C 120.746 254.675 121.455 254.812 122.046 255.127 C 122.636 255.433 122.945 255.842 122.973 256.359 C 123 256.873 122.643 257.379 121.9 257.875 C 121.158 258.384 120.453 258.656 119.786 258.693 Z M 131.955 258.032 C 131.955 258.032 131.789 258.04 131.466 258.058 C 131.123 258.077 130.564 257.927 129.796 257.609 C 129.025 257.302 128.628 256.898 128.601 256.394 C 128.574 255.891 128.938 255.385 129.696 254.875 C 130.47 254.376 131.264 254.105 132.082 254.06 C 132.915 254.015 133.623 254.151 134.216 254.467 C 134.805 254.772 135.114 255.182 135.144 255.696 C 135.169 256.213 134.812 256.718 134.07 257.215 C 133.327 257.724 132.623 257.995 131.955 258.032 Z M 144.122 257.371 C 144.122 257.371 143.961 257.381 143.632 257.397 C 143.288 257.416 142.733 257.268 141.962 256.948 C 141.194 256.642 140.795 256.236 140.768 255.734 C 140.741 255.23 141.106 254.724 141.864 254.215 C 142.638 253.717 143.435 253.444 144.25 253.399 C 145.08 253.354 145.793 253.492 146.383 253.807 C 146.974 254.111 147.281 254.521 147.308 255.036 C 147.336 255.552 146.981 256.057 146.236 256.554 C 145.496 257.061 144.79 257.336 144.122 257.371 Z M 156.29 256.71 C 156.29 256.71 156.13 256.72 155.801 256.739 C 155.46 256.756 154.902 256.607 154.133 256.287 C 153.365 255.983 152.964 255.575 152.937 255.074 C 152.91 254.569 153.275 254.063 154.033 253.553 C 154.807 253.056 155.604 252.782 156.419 252.74 C 157.251 252.695 157.962 252.829 158.554 253.146 C 159.142 253.45 159.449 253.858 159.479 254.375 C 159.506 254.892 159.15 255.396 158.407 255.894 C 157.665 256.401 156.962 256.675 156.29 256.71 Z M 168.461 256.051 C 168.461 256.051 168.294 256.059 167.971 256.078 C 167.626 256.096 167.071 255.944 166.302 255.626 C 165.53 255.32 165.134 254.915 165.107 254.411 C 165.081 253.909 165.444 253.401 166.202 252.893 C 166.978 252.393 167.773 252.123 168.59 252.079 C 169.42 252.034 170.133 252.169 170.722 252.485 C 171.309 252.79 171.618 253.198 171.648 253.715 C 171.675 254.23 171.318 254.737 170.575 255.232 C 169.836 255.741 169.129 256.014 168.461 256.051 Z M 180.63 255.39 C 180.63 255.39 180.465 255.398 180.14 255.415 C 179.797 255.435 179.237 255.284 178.47 254.965 C 177.7 254.659 177.303 254.254 177.276 253.751 C 177.247 253.249 177.614 252.742 178.37 252.232 C 179.145 251.733 179.941 251.462 180.758 251.417 C 181.591 251.372 182.3 251.508 182.889 251.824 C 183.48 252.129 183.787 252.538 183.816 253.054 C 183.846 253.569 183.487 254.075 182.746 254.571 C 182.002 255.081 181.298 255.351 180.63 255.39 Z M 192.798 254.727 C 192.798 254.727 192.634 254.737 192.309 254.754 C 191.968 254.772 191.408 254.624 190.641 254.304 C 189.871 253.999 189.472 253.593 189.445 253.09 C 189.418 252.586 189.781 252.081 190.541 251.571 C 191.313 251.073 192.11 250.801 192.927 250.756 C 193.759 250.711 194.468 250.849 195.06 251.163 C 195.648 251.468 195.958 251.877 195.985 252.392 C 196.015 252.908 195.656 253.414 194.915 253.91 C 194.171 254.42 193.466 254.693 192.798 254.727 Z M 204.965 254.066 C 204.965 254.066 204.805 254.077 204.475 254.095 C 204.132 254.111 203.577 253.963 202.808 253.644 C 202.038 253.339 201.638 252.934 201.611 252.43 C 201.585 251.925 201.95 251.42 202.708 250.91 C 203.484 250.413 204.279 250.141 205.094 250.096 C 205.926 250.051 206.637 250.188 207.226 250.503 C 207.817 250.809 208.124 251.217 208.153 251.731 C 208.181 252.248 207.827 252.754 207.081 253.25 C 206.342 253.76 205.635 254.032 204.965 254.066 Z M 217.136 253.408 C 217.136 253.408 216.974 253.416 216.646 253.434 C 216.302 253.452 215.747 253.302 214.976 252.985 C 214.209 252.678 213.807 252.272 213.78 251.769 C 213.755 251.266 214.118 250.76 214.877 250.251 C 215.651 249.752 216.448 249.48 217.263 249.435 C 218.095 249.39 218.806 249.527 219.395 249.842 C 219.988 250.146 220.293 250.556 220.322 251.071 C 220.35 251.587 219.995 252.094 219.25 252.59 C 218.51 253.098 217.806 253.371 217.136 253.408 Z M 229.304 252.747 C 229.304 252.747 229.139 252.755 228.815 252.773 C 228.471 252.792 227.916 252.641 227.147 252.324 C 226.375 252.017 225.978 251.611 225.951 251.108 C 225.921 250.606 226.287 250.099 227.047 249.588 C 227.822 249.091 228.618 248.818 229.431 248.774 C 230.264 248.729 230.977 248.865 231.566 249.181 C 232.154 249.485 232.464 249.895 232.489 250.411 C 232.519 250.927 232.161 251.433 231.419 251.927 C 230.679 252.437 229.972 252.71 229.304 252.747 Z M 241.473 252.086 C 241.473 252.086 241.31 252.095 240.984 252.111 C 240.64 252.131 240.085 251.98 239.314 251.661 C 238.544 251.355 238.147 250.95 238.12 250.446 C 238.093 249.945 238.458 249.437 239.216 248.927 C 239.99 248.43 240.787 248.157 241.602 248.114 C 242.432 248.067 243.145 248.204 243.735 248.522 C 244.323 248.825 244.632 249.234 244.661 249.75 C 244.689 250.265 244.33 250.77 243.59 251.267 C 242.848 251.776 242.141 252.05 241.473 252.086 Z M 253.642 251.423 C 253.642 251.423 253.477 251.433 253.154 251.451 C 252.811 251.471 252.253 251.32 251.485 251.001 C 250.713 250.696 250.317 250.29 250.288 249.786 C 250.261 249.284 250.626 248.776 251.383 248.268 C 252.157 247.769 252.953 247.497 253.771 247.452 C 254.603 247.407 255.312 247.544 255.905 247.859 C 256.493 248.165 256.801 248.573 256.828 249.09 C 256.858 249.605 256.5 250.11 255.758 250.607 C 255.016 251.116 254.31 251.388 253.642 251.423 Z M 265.809 250.764 C 265.809 250.764 265.649 250.772 265.319 250.791 C 264.977 250.809 264.42 250.659 263.652 250.341 C 262.883 250.035 262.484 249.63 262.457 249.126 C 262.427 248.622 262.793 248.115 263.551 247.608 C 264.328 247.108 265.122 246.836 265.936 246.792 C 266.771 246.747 267.48 246.883 268.072 247.198 C 268.661 247.505 268.969 247.912 268.996 248.428 C 269.024 248.944 268.669 249.45 267.925 249.947 C 267.183 250.456 266.481 250.727 265.809 250.764 Z M 277.979 250.103 C 277.979 250.103 277.816 250.111 277.491 250.13 C 277.146 250.148 276.591 249.998 275.819 249.68 C 275.052 249.374 274.652 248.967 274.625 248.465 C 274.597 247.962 274.963 247.456 275.721 246.947 C 276.496 246.447 277.292 246.177 278.107 246.132 C 278.938 246.087 279.651 246.223 280.239 246.537 C 280.831 246.844 281.137 247.253 281.165 247.767 C 281.192 248.284 280.838 248.789 280.094 249.286 C 279.354 249.794 278.649 250.066 277.979 250.103 Z M 290.147 249.442 C 290.147 249.442 289.985 249.451 289.659 249.469 C 289.317 249.487 288.761 249.339 287.989 249.019 C 287.219 248.713 286.823 248.307 286.793 247.805 C 286.765 247.301 287.133 246.796 287.889 246.284 C 288.666 245.788 289.46 245.514 290.275 245.471 C 291.109 245.426 291.819 245.561 292.411 245.878 C 292.999 246.182 293.307 246.59 293.334 247.106 C 293.365 247.623 293.004 248.129 292.263 248.625 C 291.522 249.133 290.815 249.406 290.147 249.442 Z M 302.318 248.781 C 302.318 248.781 302.151 248.792 301.829 248.809 C 301.485 248.826 300.929 248.676 300.157 248.357 C 299.389 248.052 298.99 247.646 298.963 247.143 C 298.936 246.64 299.301 246.133 300.059 245.624 C 300.836 245.126 301.63 244.854 302.445 244.811 C 303.277 244.766 303.989 244.901 304.577 245.217 C 305.167 245.522 305.477 245.929 305.505 246.446 C 305.532 246.96 305.174 247.468 304.433 247.964 C 303.694 248.473 302.985 248.747 302.318 248.781 Z M 314.486 248.121 C 314.486 248.121 314.323 248.129 313.997 248.147 C 313.655 248.166 313.096 248.015 312.327 247.698 C 311.557 247.391 311.16 246.987 311.133 246.482 C 311.105 245.979 311.471 245.472 312.229 244.964 C 313.002 244.465 313.798 244.193 314.613 244.148 C 315.448 244.103 316.156 244.24 316.749 244.557 C 317.337 244.861 317.646 245.27 317.673 245.786 C 317.702 246.301 317.345 246.807 316.603 247.303 C 315.859 247.812 315.153 248.084 314.486 248.121 Z M 326.652 247.46 C 326.652 247.46 326.491 247.468 326.165 247.486 C 325.821 247.507 325.265 247.354 324.495 247.037 C 323.727 246.73 323.328 246.326 323.298 245.821 C 323.271 245.321 323.637 244.813 324.395 244.303 C 325.17 243.804 325.966 243.533 326.78 243.488 C 327.613 243.443 328.324 243.579 328.915 243.894 C 329.505 244.2 329.813 244.61 329.84 245.123 C 329.868 245.64 329.513 246.146 328.769 246.642 C 328.027 247.152 327.324 247.423 326.652 247.46 Z M 338.823 246.799 C 338.823 246.799 338.661 246.809 338.332 246.825 C 337.989 246.844 337.435 246.694 336.665 246.376 C 335.895 246.069 335.496 245.665 335.469 245.161 C 335.441 244.658 335.807 244.152 336.565 243.642 C 337.342 243.145 338.136 242.872 338.951 242.827 C 339.783 242.782 340.495 242.919 341.083 243.235 C 341.675 243.539 341.981 243.949 342.011 244.464 C 342.037 244.979 341.683 245.485 340.937 245.982 C 340.197 246.491 339.494 246.763 338.823 246.799 Z M 350.993 246.138 C 350.993 246.138 350.827 246.148 350.502 246.166 C 350.159 246.183 349.603 246.035 348.831 245.715 C 348.062 245.41 347.666 245.003 347.636 244.501 C 347.611 243.997 347.975 243.491 348.733 242.98 C 349.508 242.484 350.304 242.212 351.119 242.167 C 351.953 242.122 352.665 242.257 353.251 242.574 C 353.841 242.878 354.151 243.288 354.179 243.803 C 354.208 244.32 353.849 244.824 353.109 245.322 C 352.365 245.828 351.66 246.103 350.993 246.138 Z M 363.16 245.478 C 363.16 245.478 362.997 245.487 362.67 245.505 C 362.329 245.524 361.773 245.374 361.003 245.056 C 360.233 244.748 359.835 244.343 359.807 243.841 C 359.779 243.336 360.145 242.83 360.903 242.321 C 361.68 241.823 362.475 241.55 363.287 241.506 C 364.121 241.462 364.833 241.596 365.422 241.913 C 366.011 242.217 366.32 242.626 366.347 243.143 C 366.376 243.658 366.018 244.165 365.277 244.66 C 364.535 245.168 363.83 245.442 363.16 245.478 Z M 375.332 244.818 C 375.332 244.818 375.168 244.826 374.84 244.843 C 374.497 244.863 373.939 244.712 373.172 244.393 C 372.401 244.087 372.003 243.682 371.978 243.179 C 371.95 242.677 372.316 242.169 373.073 241.66 C 373.846 241.161 374.641 240.889 375.459 240.846 C 376.289 240.8 377.001 240.935 377.59 241.252 C 378.179 241.557 378.489 241.966 378.517 242.482 C 378.544 242.997 378.187 243.502 377.448 243.999 C 376.703 244.509 375.998 244.779 375.332 244.818 Z M 387.499 244.155 C 387.499 244.155 387.335 244.165 387.008 244.182 C 386.668 244.202 386.111 244.051 385.34 243.732 C 384.571 243.427 384.173 243.021 384.145 242.518 C 384.118 242.016 384.484 241.508 385.241 240.999 C 386.016 240.501 386.809 240.229 387.627 240.184 C 388.46 240.139 389.169 240.276 389.76 240.591 C 390.351 240.896 390.66 241.305 390.687 241.821 C 390.714 242.336 390.357 242.842 389.616 243.338 C 388.873 243.848 388.17 244.12 387.499 244.155 Z M 399.664 243.494 C 399.664 243.494 399.506 243.504 399.176 243.523 C 398.835 243.539 398.279 243.391 397.507 243.071 C 396.741 242.767 396.341 242.361 396.312 241.858 C 396.285 241.353 396.651 240.848 397.409 240.338 C 398.184 239.84 398.979 239.569 399.793 239.524 C 400.627 239.479 401.339 239.616 401.927 239.93 C 402.517 240.237 402.827 240.644 402.852 241.159 C 402.882 241.675 402.525 242.181 401.783 242.678 C 401.041 243.188 400.338 243.46 399.664 243.494 Z M 111.838 317.032 C 111.838 317.032 111.674 317.04 111.35 317.058 C 111.006 317.077 110.452 316.927 109.682 316.609 C 108.91 316.302 108.514 315.898 108.486 315.394 C 108.458 314.89 108.823 314.385 109.581 313.875 C 110.357 313.377 111.152 313.105 111.968 313.06 C 112.798 313.015 113.512 313.151 114.1 313.467 C 114.689 313.772 114.999 314.181 115.025 314.695 C 115.053 315.212 114.697 315.718 113.955 316.214 C 113.214 316.724 112.507 316.995 111.838 317.032 Z M 124.009 316.371 C 124.009 316.371 123.844 316.38 123.518 316.397 C 123.176 316.416 122.617 316.267 121.849 315.948 C 121.079 315.642 120.681 315.236 120.653 314.733 C 120.628 314.23 120.992 313.724 121.751 313.214 C 122.524 312.716 123.319 312.444 124.137 312.399 C 124.967 312.354 125.68 312.491 126.268 312.807 C 126.858 313.112 127.166 313.521 127.196 314.036 C 127.223 314.551 126.867 315.057 126.126 315.554 C 125.383 316.061 124.677 316.335 124.009 316.371 Z M 136.177 315.71 C 136.177 315.71 136.013 315.72 135.687 315.738 C 135.347 315.755 134.788 315.607 134.02 315.287 C 133.25 314.979 132.851 314.575 132.824 314.073 C 132.795 313.569 133.16 313.063 133.919 312.552 C 134.692 312.056 135.487 311.781 136.305 311.738 C 137.139 311.693 137.847 311.829 138.439 312.146 C 139.028 312.449 139.338 312.858 139.365 313.375 C 139.393 313.891 139.035 314.397 138.292 314.892 C 137.55 315.4 136.846 315.675 136.177 315.71 Z M 148.343 315.051 C 148.343 315.051 148.184 315.059 147.855 315.077 C 147.513 315.096 146.957 314.944 146.186 314.625 C 145.417 314.32 145.017 313.914 144.992 313.41 C 144.963 312.909 145.328 312.401 146.088 311.892 C 146.863 311.393 147.658 311.122 148.471 311.078 C 149.304 311.034 150.016 311.168 150.607 311.485 C 151.196 311.789 151.503 312.198 151.531 312.714 C 151.561 313.23 151.204 313.734 150.46 314.232 C 149.719 314.741 149.015 315.014 148.343 315.051 Z M 160.515 314.39 C 160.515 314.39 160.352 314.397 160.025 314.415 C 159.682 314.435 159.127 314.284 158.355 313.965 C 157.587 313.659 157.186 313.254 157.159 312.751 C 157.134 312.248 157.497 311.741 158.255 311.232 C 159.032 310.733 159.826 310.462 160.641 310.417 C 161.472 310.372 162.185 310.508 162.774 310.823 C 163.368 311.128 163.672 311.537 163.702 312.054 C 163.727 312.569 163.374 313.074 162.627 313.571 C 161.889 314.081 161.183 314.352 160.515 314.39 Z M 172.683 313.727 C 172.683 313.727 172.519 313.736 172.192 313.755 C 171.851 313.772 171.296 313.623 170.524 313.304 C 169.754 312.999 169.357 312.593 169.328 312.09 C 169.301 311.586 169.666 311.081 170.424 310.571 C 171.2 310.072 171.995 309.801 172.81 309.756 C 173.644 309.711 174.355 309.848 174.945 310.163 C 175.533 310.469 175.843 310.877 175.87 311.392 C 175.899 311.908 175.541 312.414 174.798 312.91 C 174.058 313.42 173.351 313.691 172.683 313.727 Z M 184.852 313.066 C 184.852 313.066 184.688 313.076 184.364 313.095 C 184.02 313.112 183.463 312.963 182.693 312.644 C 181.923 312.338 181.525 311.931 181.499 311.43 C 181.472 310.925 181.837 310.42 182.595 309.911 C 183.367 309.412 184.162 309.14 184.981 309.095 C 185.811 309.05 186.52 309.188 187.114 309.502 C 187.702 309.809 188.011 310.216 188.039 310.731 C 188.068 311.247 187.709 311.754 186.967 312.249 C 186.224 312.759 185.52 313.031 184.852 313.066 Z M 197.021 312.407 C 197.021 312.407 196.859 312.416 196.533 312.434 C 196.191 312.452 195.633 312.302 194.863 311.983 C 194.091 311.678 193.696 311.271 193.667 310.769 C 193.64 310.265 194.005 309.759 194.764 309.248 C 195.536 308.752 196.332 308.48 197.15 308.435 C 197.982 308.39 198.691 308.525 199.284 308.841 C 199.871 309.146 200.18 309.554 200.208 310.07 C 200.237 310.587 199.88 311.093 199.137 311.59 C 198.395 312.098 197.689 312.371 197.021 312.407 Z M 209.189 311.747 C 209.189 311.747 209.027 311.755 208.698 311.773 C 208.357 311.791 207.802 311.641 207.03 311.324 C 206.262 311.016 205.863 310.611 205.834 310.108 C 205.807 309.605 206.172 309.1 206.93 308.588 C 207.704 308.09 208.501 307.818 209.316 307.775 C 210.148 307.73 210.859 307.865 211.451 308.181 C 212.041 308.485 212.347 308.894 212.376 309.41 C 212.403 309.925 212.049 310.433 211.304 310.927 C 210.564 311.437 209.86 311.71 209.189 311.747 Z M 221.358 311.086 C 221.358 311.086 221.196 311.093 220.869 311.111 C 220.525 311.131 219.968 310.979 219.199 310.661 C 218.431 310.355 218.031 309.951 218.005 309.446 C 217.976 308.945 218.343 308.437 219.099 307.927 C 219.875 307.429 220.67 307.157 221.487 307.114 C 222.317 307.067 223.03 307.204 223.618 307.522 C 224.208 307.825 224.517 308.234 224.544 308.751 C 224.572 309.264 224.218 309.77 223.473 310.266 C 222.733 310.776 222.028 311.048 221.358 311.086 Z M 233.527 310.424 C 233.527 310.424 233.363 310.433 233.037 310.45 C 232.697 310.47 232.138 310.32 231.367 310.001 C 230.597 309.694 230.2 309.29 230.173 308.785 C 230.146 308.284 230.511 307.776 231.268 307.267 C 232.044 306.769 232.839 306.496 233.656 306.451 C 234.488 306.406 235.199 306.543 235.79 306.859 C 236.377 307.164 236.684 307.573 236.713 308.088 C 236.743 308.603 236.384 309.11 235.643 309.608 C 234.901 310.115 234.195 310.388 233.527 310.424 Z M 245.696 309.764 C 245.696 309.764 245.531 309.772 245.206 309.79 C 244.865 309.809 244.307 309.659 243.538 309.34 C 242.768 309.034 242.369 308.629 242.342 308.125 C 242.317 307.622 242.678 307.115 243.438 306.607 C 244.215 306.108 245.009 305.837 245.826 305.791 C 246.657 305.746 247.368 305.883 247.957 306.198 C 248.546 306.504 248.855 306.913 248.882 307.427 C 248.91 307.945 248.553 308.449 247.812 308.947 C 247.072 309.455 246.364 309.727 245.696 309.764 Z M 257.866 309.103 C 257.866 309.103 257.702 309.111 257.375 309.13 C 257.031 309.148 256.474 308.998 255.707 308.68 C 254.935 308.374 254.538 307.967 254.511 307.466 C 254.486 306.961 254.849 306.456 255.607 305.945 C 256.381 305.447 257.176 305.176 257.993 305.132 C 258.825 305.087 259.536 305.222 260.126 305.537 C 260.714 305.842 261.023 306.252 261.052 306.767 C 261.08 307.284 260.724 307.789 259.981 308.286 C 259.239 308.793 258.533 309.066 257.866 309.103 Z M 270.033 308.442 C 270.033 308.442 269.871 308.45 269.543 308.469 C 269.2 308.487 268.644 308.338 267.873 308.019 C 267.106 307.712 266.704 307.307 266.679 306.805 C 266.652 306.301 267.017 305.795 267.774 305.285 C 268.549 304.787 269.345 304.514 270.161 304.471 C 270.992 304.426 271.704 304.561 272.294 304.878 C 272.885 305.182 273.19 305.59 273.219 306.107 C 273.248 306.623 272.891 307.128 272.149 307.623 C 271.407 308.133 270.703 308.405 270.033 308.442 Z M 282.202 307.781 C 282.202 307.781 282.042 307.791 281.712 307.807 C 281.368 307.826 280.813 307.676 280.044 307.357 C 279.274 307.051 278.876 306.646 278.849 306.142 C 278.821 305.64 279.186 305.133 279.945 304.624 C 280.719 304.125 281.516 303.853 282.329 303.81 C 283.161 303.763 283.874 303.901 284.464 304.217 C 285.052 304.521 285.361 304.929 285.388 305.446 C 285.418 305.96 285.061 306.467 284.316 306.963 C 283.576 307.472 282.871 307.744 282.202 307.781 Z M 294.371 307.121 C 294.371 307.121 294.207 307.128 293.882 307.147 C 293.538 307.166 292.983 307.015 292.211 306.696 C 291.442 306.391 291.044 305.985 291.017 305.482 C 290.99 304.979 291.355 304.472 292.113 303.963 C 292.888 303.464 293.684 303.194 294.499 303.149 C 295.331 303.104 296.042 303.24 296.632 303.554 C 297.22 303.861 297.529 304.269 297.558 304.785 C 297.586 305.301 297.226 305.806 296.487 306.303 C 295.746 306.812 295.039 307.084 294.371 307.121 Z M 306.539 306.459 C 306.539 306.459 306.375 306.468 306.051 306.486 C 305.707 306.504 305.152 306.355 304.382 306.037 C 303.612 305.73 303.214 305.326 303.187 304.822 C 303.157 304.317 303.523 303.813 304.281 303.303 C 305.057 302.804 305.852 302.533 306.667 302.488 C 307.501 302.443 308.212 302.579 308.802 302.895 C 309.39 303.2 309.699 303.608 309.726 304.122 C 309.756 304.64 309.399 305.146 308.655 305.642 C 307.915 306.152 307.209 306.423 306.539 306.459 Z M 318.709 305.798 C 318.709 305.798 318.545 305.808 318.221 305.825 C 317.877 305.843 317.318 305.694 316.552 305.376 C 315.78 305.069 315.382 304.664 315.357 304.161 C 315.328 303.656 315.695 303.152 316.451 302.642 C 317.225 302.144 318.019 301.872 318.838 301.827 C 319.669 301.782 320.378 301.919 320.97 302.234 C 321.558 302.539 321.869 302.949 321.896 303.463 C 321.924 303.979 321.566 304.485 320.825 304.981 C 320.081 305.491 319.377 305.763 318.709 305.798 Z M 330.877 305.138 C 330.877 305.138 330.713 305.148 330.388 305.165 C 330.042 305.183 329.489 305.034 328.716 304.715 C 327.948 304.409 327.55 304.003 327.523 303.5 C 327.495 302.997 327.861 302.491 328.618 301.98 C 329.395 301.484 330.189 301.209 331.004 301.166 C 331.836 301.121 332.548 301.256 333.136 301.574 C 333.729 301.877 334.035 302.286 334.064 302.803 C 334.089 303.318 333.737 303.824 332.99 304.32 C 332.252 304.828 331.547 305.103 330.877 305.138 Z M 343.045 304.479 C 343.045 304.479 342.883 304.487 342.556 304.505 C 342.213 304.524 341.658 304.374 340.888 304.053 C 340.119 303.747 339.72 303.342 339.691 302.84 C 339.663 302.337 340.029 301.83 340.786 301.319 C 341.561 300.821 342.357 300.55 343.172 300.506 C 344.007 300.461 344.718 300.596 345.308 300.913 C 345.897 301.217 346.205 301.626 346.232 302.142 C 346.262 302.656 345.904 303.164 345.161 303.66 C 344.419 304.168 343.716 304.442 343.045 304.479 Z M 355.215 303.818 C 355.215 303.818 355.05 303.826 354.727 303.842 C 354.383 303.863 353.826 303.712 353.055 303.393 C 352.286 303.087 351.888 302.682 351.861 302.178 C 351.833 301.676 352.199 301.168 352.957 300.66 C 353.732 300.161 354.528 299.889 355.342 299.844 C 356.175 299.799 356.886 299.935 357.475 300.252 C 358.064 300.556 358.373 300.965 358.402 301.482 C 358.429 301.997 358.07 302.501 357.331 302.999 C 356.59 303.508 355.883 303.779 355.215 303.818 Z M 367.385 303.155 C 367.385 303.155 367.221 303.164 366.895 303.182 C 366.553 303.202 365.997 303.051 365.225 302.732 C 364.454 302.427 364.056 302.021 364.031 301.518 C 364.003 301.016 364.369 300.508 365.125 299.999 C 365.902 299.5 366.698 299.228 367.511 299.184 C 368.345 299.139 369.056 299.275 369.646 299.59 C 370.235 299.896 370.543 300.305 370.57 300.82 C 370.6 301.336 370.242 301.841 369.501 302.338 C 368.76 302.848 368.051 303.119 367.385 303.155 Z M 379.553 302.494 C 379.553 302.494 379.387 302.504 379.063 302.522 C 378.721 302.539 378.164 302.391 377.393 302.071 C 376.624 301.766 376.228 301.359 376.199 300.857 C 376.173 300.353 376.537 299.847 377.295 299.338 C 378.069 298.84 378.863 298.568 379.681 298.523 C 380.513 298.478 381.222 298.616 381.813 298.93 C 382.403 299.236 382.713 299.644 382.741 300.159 C 382.768 300.675 382.41 301.182 381.669 301.677 C 380.926 302.187 380.222 302.459 379.553 302.494 Z M 391.724 301.834 C 391.724 301.834 391.559 301.843 391.233 301.862 C 390.889 301.879 390.332 301.73 389.563 301.411 C 388.794 301.106 388.396 300.698 388.369 300.197 C 388.341 299.693 388.707 299.187 389.465 298.676 C 390.237 298.179 391.034 297.908 391.849 297.863 C 392.683 297.818 393.393 297.955 393.983 298.269 C 394.57 298.574 394.881 298.982 394.908 299.498 C 394.936 300.014 394.581 300.521 393.839 301.018 C 393.095 301.526 392.391 301.798 391.724 301.834 Z M 403.888 301.174 C 403.888 301.174 403.727 301.183 403.401 301.201 C 403.059 301.219 402.501 301.069 401.729 300.751 C 400.963 300.443 400.562 300.038 400.534 299.536 C 400.507 299.032 400.873 298.528 401.631 298.016 C 402.407 297.519 403.202 297.246 404.016 297.203 C 404.851 297.158 405.56 297.293 406.149 297.608 C 406.741 297.913 407.049 298.321 407.076 298.838 C 407.105 299.355 406.749 299.861 406.007 300.355 C 405.263 300.865 404.56 301.138 403.888 301.174 Z M 104.213 376.039 C 104.213 376.039 104.048 376.047 103.722 376.065 C 103.379 376.083 102.824 375.933 102.052 375.616 C 101.283 375.309 100.884 374.905 100.857 374.4 C 100.832 373.898 101.196 373.392 101.954 372.882 C 102.729 372.383 103.525 372.112 104.34 372.067 C 105.172 372.022 105.884 372.158 106.472 372.473 C 107.061 372.779 107.37 373.189 107.398 373.702 C 107.427 374.219 107.069 374.725 106.327 375.221 C 105.588 375.73 104.88 376.002 104.213 376.039 Z M 116.381 375.378 C 116.381 375.378 116.216 375.387 115.892 375.404 C 115.548 375.423 114.99 375.275 114.223 374.955 C 113.452 374.648 113.055 374.243 113.028 373.74 C 112.998 373.237 113.364 372.731 114.121 372.221 C 114.896 371.724 115.691 371.451 116.507 371.406 C 117.342 371.361 118.049 371.497 118.642 371.814 C 119.231 372.118 119.541 372.528 119.567 373.042 C 119.597 373.558 119.237 374.064 118.496 374.561 C 117.754 375.07 117.05 375.342 116.381 375.378 Z M 128.55 374.717 C 128.55 374.717 128.387 374.727 128.062 374.744 C 127.717 374.762 127.16 374.614 126.392 374.294 C 125.622 373.989 125.224 373.582 125.197 373.08 C 125.17 372.576 125.535 372.07 126.293 371.559 C 127.066 371.063 127.861 370.791 128.679 370.746 C 129.509 370.701 130.218 370.836 130.812 371.153 C 131.399 371.457 131.709 371.865 131.738 372.382 C 131.765 372.899 131.406 373.403 130.666 373.901 C 129.923 374.407 129.218 374.682 128.55 374.717 Z M 140.718 374.057 C 140.718 374.057 140.555 374.066 140.228 374.084 C 139.884 374.102 139.33 373.953 138.558 373.634 C 137.79 373.327 137.39 372.922 137.363 372.42 C 137.335 371.915 137.701 371.409 138.459 370.9 C 139.235 370.402 140.03 370.128 140.845 370.085 C 141.677 370.041 142.39 370.175 142.976 370.492 C 143.569 370.796 143.875 371.205 143.905 371.722 C 143.931 372.237 143.577 372.744 142.831 373.239 C 142.093 373.747 141.387 374.021 140.718 374.057 Z M 152.887 373.397 C 152.887 373.397 152.724 373.405 152.397 373.422 C 152.054 373.442 151.497 373.29 150.727 372.972 C 149.959 372.666 149.561 372.261 149.531 371.757 C 149.503 371.256 149.869 370.748 150.627 370.239 C 151.403 369.739 152.198 369.468 153.013 369.425 C 153.848 369.379 154.559 369.514 155.149 369.831 C 155.737 370.136 156.046 370.545 156.073 371.061 C 156.102 371.576 155.746 372.081 155.002 372.578 C 154.259 373.087 153.557 373.358 152.887 373.397 Z M 165.056 372.734 C 165.056 372.734 164.891 372.744 164.568 372.761 C 164.223 372.781 163.667 372.63 162.897 372.311 C 162.127 372.005 161.729 371.6 161.702 371.097 C 161.674 370.595 162.041 370.087 162.797 369.578 C 163.573 369.08 164.37 368.808 165.184 368.763 C 166.015 368.718 166.728 368.855 167.316 369.17 C 167.904 369.475 168.215 369.884 168.242 370.4 C 168.269 370.915 167.912 371.421 167.172 371.917 C 166.432 372.427 165.724 372.697 165.056 372.734 Z M 177.225 372.073 C 177.225 372.073 177.061 372.083 176.735 372.102 C 176.393 372.118 175.834 371.97 175.066 371.65 C 174.295 371.346 173.898 370.939 173.871 370.437 C 173.843 369.932 174.209 369.427 174.967 368.917 C 175.74 368.419 176.536 368.148 177.352 368.103 C 178.186 368.058 178.894 368.195 179.485 368.509 C 180.075 368.816 180.384 369.223 180.411 369.738 C 180.44 370.254 180.081 370.76 179.341 371.257 C 178.599 371.767 177.893 372.039 177.225 372.073 Z M 189.393 371.413 C 189.393 371.413 189.228 371.423 188.904 371.441 C 188.562 371.458 188.005 371.309 187.235 370.992 C 186.466 370.685 186.067 370.279 186.04 369.776 C 186.014 369.271 186.378 368.766 187.136 368.258 C 187.908 367.759 188.705 367.487 189.521 367.442 C 190.354 367.397 191.063 367.534 191.654 367.848 C 192.245 368.155 192.553 368.562 192.582 369.077 C 192.608 369.594 192.25 370.101 191.51 370.596 C 190.767 371.104 190.063 371.378 189.393 371.413 Z M 201.562 370.753 C 201.562 370.753 201.399 370.762 201.069 370.78 C 200.729 370.798 200.173 370.648 199.402 370.331 C 198.635 370.024 198.235 369.618 198.208 369.115 C 198.18 368.611 198.545 368.106 199.303 367.595 C 200.079 367.098 200.874 366.825 201.688 366.781 C 202.521 366.736 203.234 366.871 203.822 367.188 C 204.412 367.492 204.721 367.901 204.748 368.417 C 204.775 368.933 204.421 369.44 203.676 369.936 C 202.936 370.444 202.23 370.717 201.562 370.753 Z M 213.731 370.093 C 213.731 370.093 213.568 370.102 213.24 370.119 C 212.897 370.138 212.342 369.986 211.57 369.668 C 210.805 369.361 210.402 368.957 210.376 368.453 C 210.349 367.952 210.715 367.444 211.473 366.934 C 212.248 366.437 213.044 366.164 213.858 366.121 C 214.69 366.076 215.401 366.211 215.991 366.528 C 216.583 366.831 216.888 367.241 216.917 367.756 C 216.946 368.271 216.589 368.777 215.847 369.273 C 215.104 369.783 214.401 370.057 213.731 370.093 Z M 225.898 369.432 C 225.898 369.432 225.734 369.44 225.409 369.458 C 225.066 369.477 224.511 369.326 223.741 369.007 C 222.97 368.702 222.573 368.297 222.545 367.793 C 222.518 367.291 222.882 366.783 223.642 366.273 C 224.419 365.776 225.213 365.504 226.029 365.459 C 226.86 365.413 227.573 365.551 228.16 365.868 C 228.749 366.172 229.059 366.58 229.085 367.097 C 229.114 367.61 228.756 368.116 228.014 368.614 C 227.273 369.122 226.569 369.395 225.898 369.432 Z M 238.07 368.771 C 238.07 368.771 237.905 368.779 237.579 368.797 C 237.235 368.816 236.682 368.666 235.908 368.348 C 235.139 368.042 234.743 367.637 234.714 367.132 C 234.687 366.629 235.053 366.122 235.811 365.615 C 236.585 365.115 237.382 364.843 238.196 364.798 C 239.029 364.753 239.742 364.89 240.329 365.205 C 240.918 365.511 241.227 365.919 241.256 366.434 C 241.283 366.951 240.927 367.456 240.185 367.953 C 239.442 368.462 238.738 368.734 238.07 368.771 Z M 250.236 368.11 C 250.236 368.11 250.074 368.118 249.748 368.137 C 249.406 368.155 248.848 368.005 248.08 367.687 C 247.31 367.381 246.912 366.974 246.884 366.472 C 246.855 365.968 247.221 365.462 247.98 364.954 C 248.754 364.454 249.547 364.182 250.365 364.137 C 251.198 364.093 251.907 364.229 252.499 364.544 C 253.087 364.85 253.398 365.26 253.425 365.774 C 253.454 366.291 253.095 366.796 252.355 367.293 C 251.61 367.801 250.907 368.073 250.236 368.11 Z M 262.404 367.449 C 262.404 367.449 262.244 367.458 261.914 367.476 C 261.572 367.494 261.017 367.344 260.247 367.026 C 259.477 366.72 259.079 366.313 259.051 365.811 C 259.022 365.308 259.388 364.802 260.148 364.291 C 260.923 363.794 261.718 363.523 262.533 363.478 C 263.366 363.433 264.077 363.567 264.666 363.884 C 265.257 364.189 265.565 364.599 265.592 365.113 C 265.62 365.63 265.263 366.135 264.52 366.632 C 263.779 367.14 263.076 367.413 262.404 367.449 Z M 274.575 366.788 C 274.575 366.788 274.412 366.797 274.085 366.816 C 273.741 366.833 273.188 366.685 272.414 366.365 C 271.649 366.059 271.247 365.653 271.22 365.152 C 271.194 364.647 271.559 364.142 272.317 363.631 C 273.093 363.132 273.887 362.861 274.701 362.818 C 275.535 362.773 276.246 362.908 276.835 363.224 C 277.428 363.529 277.733 363.936 277.761 364.453 C 277.788 364.967 277.433 365.475 276.689 365.97 C 275.95 366.479 275.243 366.752 274.575 366.788 Z M 286.743 366.128 C 286.743 366.128 286.58 366.137 286.252 366.154 C 285.912 366.173 285.356 366.022 284.584 365.704 C 283.814 365.398 283.418 364.993 283.389 364.489 C 283.362 363.986 283.728 363.479 284.484 362.97 C 285.26 362.471 286.056 362.2 286.871 362.157 C 287.704 362.11 288.415 362.247 289.004 362.563 C 289.593 362.868 289.904 363.275 289.929 363.792 C 289.958 364.307 289.601 364.813 288.86 365.31 C 288.118 365.819 287.41 366.09 286.743 366.128 Z M 298.913 365.466 C 298.913 365.466 298.748 365.475 298.423 365.493 C 298.08 365.512 297.524 365.361 296.754 365.043 C 295.984 364.737 295.587 364.333 295.559 363.828 C 295.532 363.325 295.898 362.819 296.656 362.31 C 297.431 361.811 298.226 361.54 299.04 361.495 C 299.872 361.45 300.585 361.586 301.174 361.9 C 301.763 362.207 302.072 362.617 302.101 363.13 C 302.128 363.647 301.769 364.153 301.028 364.649 C 300.288 365.158 299.581 365.43 298.913 365.466 Z M 311.081 364.806 C 311.081 364.806 310.918 364.814 310.593 364.832 C 310.25 364.85 309.693 364.701 308.922 364.383 C 308.152 364.076 307.757 363.672 307.727 363.168 C 307.7 362.665 308.066 362.159 308.824 361.649 C 309.598 361.151 310.391 360.879 311.21 360.834 C 312.042 360.789 312.753 360.925 313.344 361.242 C 313.932 361.546 314.242 361.956 314.269 362.469 C 314.297 362.986 313.939 363.492 313.198 363.988 C 312.455 364.498 311.749 364.769 311.081 364.806 Z M 323.249 364.145 C 323.249 364.145 323.086 364.155 322.758 364.172 C 322.418 364.19 321.861 364.041 321.09 363.722 C 320.322 363.415 319.922 363.01 319.893 362.508 C 319.868 362.004 320.232 361.498 320.991 360.988 C 321.765 360.491 322.561 360.219 323.375 360.174 C 324.209 360.129 324.921 360.266 325.51 360.581 C 326.1 360.885 326.407 361.295 326.437 361.81 C 326.464 362.325 326.109 362.831 325.366 363.328 C 324.623 363.835 323.92 364.11 323.249 364.145 Z M 335.419 363.485 C 335.419 363.485 335.256 363.494 334.929 363.512 C 334.586 363.53 334.029 363.381 333.26 363.062 C 332.491 362.756 332.09 362.35 332.065 361.847 C 332.038 361.343 332.403 360.837 333.159 360.326 C 333.936 359.83 334.732 359.556 335.547 359.513 C 336.376 359.468 337.091 359.603 337.68 359.92 C 338.27 360.224 338.577 360.632 338.605 361.149 C 338.632 361.666 338.278 362.17 337.533 362.667 C 336.794 363.175 336.087 363.449 335.419 363.485 Z M 347.587 362.825 C 347.587 362.825 347.424 362.833 347.097 362.849 C 346.756 362.87 346.2 362.718 345.428 362.4 C 344.656 362.094 344.26 361.689 344.233 361.184 C 344.206 360.684 344.571 360.176 345.33 359.666 C 346.104 359.167 346.9 358.896 347.716 358.852 C 348.547 358.806 349.259 358.942 349.848 359.259 C 350.438 359.563 350.745 359.972 350.775 360.489 C 350.803 361.004 350.445 361.511 349.703 362.006 C 348.962 362.514 348.255 362.788 347.587 362.825 Z M 359.755 362.164 C 359.755 362.164 359.592 362.17 359.265 362.189 C 358.924 362.209 358.368 362.058 357.598 361.739 C 356.828 361.433 356.43 361.028 356.403 360.525 C 356.376 360.023 356.739 359.515 357.5 359.006 C 358.274 358.508 359.07 358.235 359.884 358.19 C 360.717 358.146 361.43 358.281 362.018 358.598 C 362.605 358.902 362.915 359.312 362.943 359.828 C 362.971 360.343 362.613 360.848 361.871 361.345 C 361.132 361.854 360.425 362.125 359.755 362.164 Z M 371.926 361.501 C 371.926 361.501 371.762 361.511 371.437 361.529 C 371.094 361.546 370.535 361.398 369.766 361.078 C 368.997 360.774 368.598 360.367 368.571 359.865 C 368.544 359.36 368.909 358.854 369.668 358.345 C 370.441 357.847 371.236 357.576 372.054 357.53 C 372.885 357.485 373.596 357.623 374.186 357.937 C 374.774 358.243 375.083 358.651 375.113 359.166 C 375.14 359.682 374.784 360.187 374.041 360.685 C 373.298 361.194 372.593 361.466 371.926 361.501 Z M 384.095 360.841 C 384.095 360.841 383.932 360.85 383.605 360.869 C 383.264 360.886 382.706 360.737 381.936 360.418 C 381.167 360.113 380.769 359.705 380.742 359.204 C 380.714 358.699 381.079 358.194 381.835 357.684 C 382.61 357.186 383.406 356.915 384.222 356.87 C 385.055 356.825 385.764 356.962 386.357 357.276 C 386.946 357.583 387.254 357.99 387.281 358.505 C 387.311 359.022 386.951 359.528 386.211 360.024 C 385.468 360.534 384.764 360.805 384.095 360.841 Z M 396.261 360.181 C 396.261 360.181 396.1 360.19 395.773 360.208 C 395.43 360.226 394.874 360.076 394.104 359.758 C 393.335 359.452 392.936 359.045 392.909 358.543 C 392.88 358.039 393.245 357.534 394.003 357.023 C 394.78 356.526 395.574 356.253 396.389 356.209 C 397.221 356.164 397.935 356.299 398.522 356.615 C 399.113 356.92 399.421 357.328 399.449 357.845 C 399.476 358.361 399.121 358.868 398.377 359.364 C 397.636 359.872 396.932 360.145 396.261 360.181 Z M 107.716 436.505 C 107.716 436.505 107.552 436.513 107.226 436.532 C 106.883 436.55 106.327 436.4 105.555 436.082 C 104.786 435.776 104.388 435.371 104.361 434.867 C 104.333 434.363 104.699 433.858 105.458 433.349 C 106.233 432.849 107.029 432.578 107.844 432.533 C 108.675 432.488 109.388 432.625 109.975 432.939 C 110.565 433.246 110.874 433.653 110.903 434.169 C 110.93 434.686 110.57 435.192 109.83 435.688 C 109.089 436.197 108.384 436.468 107.716 436.505 Z M 119.885 435.844 C 119.885 435.844 119.72 435.852 119.396 435.871 C 119.053 435.889 118.495 435.739 117.726 435.421 C 116.956 435.115 116.559 434.708 116.529 434.206 C 116.502 433.703 116.868 433.198 117.626 432.688 C 118.399 432.189 119.194 431.918 120.011 431.873 C 120.846 431.828 121.554 431.964 122.146 432.278 C 122.734 432.585 123.044 432.994 123.072 433.508 C 123.099 434.025 122.742 434.531 122.001 435.027 C 121.257 435.536 120.552 435.808 119.885 435.844 Z M 132.055 435.183 C 132.055 435.183 131.889 435.193 131.565 435.21 C 131.221 435.228 130.664 435.08 129.895 434.761 C 129.125 434.454 128.728 434.049 128.701 433.547 C 128.673 433.042 129.039 432.537 129.796 432.025 C 130.568 431.53 131.363 431.258 132.181 431.212 C 133.014 431.167 133.723 431.303 134.314 431.62 C 134.903 431.923 135.212 432.332 135.241 432.847 C 135.267 433.364 134.911 433.87 134.169 434.366 C 133.426 434.874 132.722 435.148 132.055 435.183 Z M 144.221 434.524 C 144.221 434.524 144.059 434.533 143.731 434.55 C 143.388 434.569 142.831 434.419 142.061 434.099 C 141.294 433.793 140.895 433.388 140.867 432.886 C 140.84 432.382 141.206 431.876 141.962 431.365 C 142.738 430.867 143.535 430.595 144.349 430.552 C 145.182 430.507 145.893 430.642 146.482 430.959 C 147.074 431.263 147.38 431.671 147.408 432.188 C 147.435 432.702 147.08 433.209 146.336 433.705 C 145.595 434.214 144.891 434.488 144.221 434.524 Z M 156.389 433.863 C 156.389 433.863 156.227 433.87 155.899 433.888 C 155.559 433.908 155.002 433.756 154.23 433.439 C 153.465 433.132 153.065 432.728 153.036 432.223 C 153.008 431.721 153.375 431.214 154.131 430.705 C 154.907 430.206 155.704 429.934 156.518 429.891 C 157.351 429.844 158.062 429.981 158.651 430.298 C 159.242 430.602 159.551 431.011 159.576 431.528 C 159.605 432.042 159.249 432.548 158.507 433.044 C 157.764 433.553 157.06 433.825 156.389 433.863 Z M 168.558 433.201 C 168.558 433.201 168.393 433.209 168.068 433.227 C 167.726 433.248 167.172 433.096 166.4 432.778 C 165.631 432.471 165.232 432.067 165.204 431.563 C 165.179 431.062 165.543 430.554 166.302 430.044 C 167.078 429.545 167.872 429.274 168.687 429.229 C 169.52 429.184 170.231 429.32 170.819 429.635 C 171.409 429.941 171.718 430.351 171.747 430.865 C 171.774 431.382 171.415 431.887 170.675 432.384 C 169.934 432.893 169.229 433.164 168.558 433.201 Z M 180.729 432.54 C 180.729 432.54 180.564 432.55 180.239 432.566 C 179.896 432.585 179.337 432.437 178.569 432.117 C 177.8 431.811 177.401 431.406 177.373 430.904 C 177.348 430.399 177.712 429.893 178.47 429.384 C 179.244 428.886 180.038 428.613 180.855 428.568 C 181.689 428.524 182.399 428.661 182.988 428.976 C 183.577 429.28 183.887 429.69 183.916 430.205 C 183.943 430.721 183.586 431.226 182.844 431.723 C 182.101 432.232 181.396 432.504 180.729 432.54 Z M 192.897 431.879 C 192.897 431.879 192.733 431.889 192.408 431.907 C 192.065 431.925 191.508 431.776 190.74 431.456 C 189.968 431.152 189.572 430.744 189.544 430.243 C 189.515 429.738 189.881 429.232 190.641 428.722 C 191.413 428.225 192.207 427.954 193.024 427.909 C 193.857 427.864 194.566 428.001 195.159 428.315 C 195.748 428.62 196.058 429.029 196.084 429.544 C 196.113 430.061 195.755 430.565 195.013 431.063 C 194.27 431.571 193.565 431.844 192.897 431.879 Z M 205.064 431.22 C 205.064 431.22 204.904 431.228 204.574 431.247 C 204.232 431.264 203.676 431.115 202.906 430.797 C 202.137 430.489 201.737 430.084 201.712 429.582 C 201.683 429.077 202.048 428.573 202.808 428.062 C 203.584 427.564 204.378 427.292 205.193 427.248 C 206.023 427.203 206.737 427.338 207.325 427.654 C 207.917 427.959 208.224 428.367 208.251 428.884 C 208.28 429.4 207.925 429.907 207.178 430.401 C 206.44 430.91 205.734 431.183 205.064 431.22 Z M 217.233 430.559 C 217.233 430.559 217.072 430.567 216.743 430.584 C 216.4 430.604 215.847 430.453 215.073 430.134 C 214.308 429.828 213.906 429.423 213.879 428.92 C 213.852 428.418 214.217 427.911 214.976 427.401 C 215.75 426.902 216.546 426.631 217.361 426.587 C 218.193 426.541 218.906 426.677 219.494 426.993 C 220.086 427.298 220.393 427.707 220.422 428.223 C 220.447 428.738 220.094 429.244 219.35 429.74 C 218.609 430.25 217.903 430.52 217.233 430.559 Z M 229.401 429.898 C 229.401 429.898 229.239 429.907 228.912 429.923 C 228.571 429.943 228.014 429.793 227.244 429.473 C 226.474 429.167 226.078 428.763 226.05 428.259 C 226.021 427.757 226.386 427.25 227.147 426.74 C 227.921 426.243 228.715 425.97 229.53 425.925 C 230.365 425.88 231.074 426.018 231.665 426.332 C 232.252 426.637 232.563 427.046 232.59 427.562 C 232.617 428.077 232.261 428.583 231.519 429.079 C 230.776 429.589 230.071 429.862 229.401 429.898 Z M 241.572 429.235 C 241.572 429.235 241.41 429.246 241.082 429.264 C 240.74 429.28 240.185 429.132 239.413 428.813 C 238.643 428.508 238.245 428.103 238.218 427.599 C 238.192 427.094 238.557 426.589 239.314 426.079 C 240.089 425.582 240.886 425.31 241.701 425.265 C 242.531 425.22 243.245 425.357 243.834 425.672 C 244.421 425.978 244.732 426.386 244.759 426.9 C 244.786 427.417 244.429 427.922 243.686 428.419 C 242.947 428.929 242.24 429.201 241.572 429.235 Z M 253.741 428.577 C 253.741 428.577 253.576 428.585 253.251 428.603 C 252.909 428.622 252.353 428.471 251.583 428.154 C 250.813 427.847 250.417 427.441 250.387 426.938 C 250.36 426.435 250.725 425.928 251.481 425.42 C 252.256 424.921 253.052 424.649 253.87 424.604 C 254.703 424.559 255.411 424.696 256.002 425.011 C 256.592 425.317 256.901 425.725 256.928 426.241 C 256.957 426.756 256.598 427.263 255.858 427.759 C 255.115 428.267 254.409 428.54 253.741 428.577 Z M 265.909 427.916 C 265.909 427.916 265.746 427.924 265.418 427.942 C 265.077 427.961 264.52 427.811 263.75 427.493 C 262.982 427.186 262.582 426.78 262.555 426.277 C 262.528 425.775 262.892 425.268 263.648 424.757 C 264.424 424.26 265.221 423.987 266.035 423.943 C 266.869 423.898 267.579 424.033 268.17 424.35 C 268.76 424.654 269.067 425.064 269.095 425.58 C 269.123 426.096 268.767 426.602 268.024 427.099 C 267.282 427.606 266.579 427.879 265.909 427.916 Z M 278.077 427.255 C 278.077 427.255 277.916 427.264 277.589 427.281 C 277.246 427.3 276.689 427.15 275.919 426.83 C 275.151 426.525 274.75 426.119 274.723 425.617 C 274.696 425.114 275.061 424.608 275.819 424.096 C 276.595 423.599 277.39 423.326 278.205 423.283 C 279.037 423.238 279.748 423.373 280.338 423.69 C 280.93 423.993 281.237 424.403 281.265 424.919 C 281.292 425.434 280.938 425.941 280.193 426.436 C 279.453 426.945 278.746 427.219 278.077 427.255 Z M 290.247 426.595 C 290.247 426.595 290.084 426.604 289.757 426.621 C 289.416 426.64 288.86 426.489 288.089 426.169 C 287.316 425.865 286.92 425.459 286.893 424.956 C 286.866 424.453 287.231 423.945 287.989 423.436 C 288.764 422.938 289.56 422.666 290.375 422.623 C 291.207 422.577 291.918 422.713 292.509 423.03 C 293.097 423.334 293.405 423.742 293.433 424.259 C 293.463 424.773 293.105 425.279 292.363 425.776 C 291.622 426.285 290.913 426.557 290.247 426.595 Z M 302.417 425.933 C 302.417 425.933 302.252 425.941 301.927 425.96 C 301.584 425.978 301.028 425.828 300.258 425.51 C 299.486 425.204 299.09 424.799 299.063 424.295 C 299.036 423.792 299.401 423.284 300.157 422.777 C 300.934 422.277 301.728 422.006 302.544 421.961 C 303.375 421.916 304.089 422.053 304.676 422.367 C 305.265 422.674 305.575 423.081 305.604 423.596 C 305.631 424.113 305.273 424.619 304.531 425.116 C 303.792 425.625 303.085 425.896 302.417 425.933 Z M 314.586 425.272 C 314.586 425.272 314.422 425.28 314.095 425.299 C 313.754 425.317 313.194 425.167 312.426 424.849 C 311.656 424.543 311.259 424.138 311.231 423.634 C 311.204 423.131 311.569 422.626 312.327 422.116 C 313.1 421.616 313.896 421.346 314.714 421.301 C 315.545 421.256 316.255 421.392 316.846 421.706 C 317.435 422.013 317.743 422.422 317.774 422.936 C 317.801 423.453 317.444 423.959 316.701 424.455 C 315.958 424.964 315.254 425.235 314.586 425.272 Z M 326.751 424.611 C 326.751 424.611 326.59 424.62 326.263 424.638 C 325.922 424.656 325.366 424.506 324.594 424.188 C 323.827 423.882 323.424 423.475 323.399 422.974 C 323.37 422.47 323.737 421.965 324.493 421.455 C 325.269 420.957 326.064 420.685 326.881 420.64 C 327.713 420.595 328.424 420.732 329.014 421.047 C 329.603 421.351 329.913 421.761 329.938 422.275 C 329.969 422.792 329.612 423.298 328.869 423.794 C 328.126 424.302 327.422 424.576 326.751 424.611 Z M 338.921 423.95 C 338.921 423.95 338.761 423.961 338.431 423.978 C 338.09 423.995 337.533 423.847 336.764 423.528 C 335.993 423.221 335.594 422.816 335.567 422.314 C 335.542 421.809 335.907 421.304 336.665 420.793 C 337.44 420.297 338.234 420.023 339.05 419.98 C 339.881 419.935 340.593 420.07 341.182 420.387 C 341.773 420.691 342.079 421.098 342.108 421.615 C 342.137 422.132 341.782 422.637 341.037 423.132 C 340.298 423.642 339.592 423.916 338.921 423.95 Z M 351.092 423.291 C 351.092 423.291 350.928 423.3 350.601 423.316 C 350.257 423.335 349.703 423.184 348.932 422.867 C 348.162 422.56 347.764 422.156 347.737 421.651 C 347.71 421.149 348.075 420.641 348.831 420.133 C 349.608 419.634 350.404 419.362 351.218 419.319 C 352.049 419.272 352.763 419.409 353.352 419.726 C 353.938 420.03 354.249 420.439 354.277 420.955 C 354.307 421.47 353.95 421.977 353.207 422.472 C 352.466 422.981 351.759 423.255 351.092 423.291 Z M 363.259 422.629 C 363.259 422.629 363.096 422.637 362.769 422.655 C 362.427 422.676 361.871 422.523 361.102 422.206 C 360.331 421.899 359.935 421.495 359.906 420.99 C 359.878 420.49 360.243 419.982 361.003 419.472 C 361.778 418.973 362.574 418.702 363.388 418.657 C 364.221 418.612 364.931 418.748 365.522 419.063 C 366.109 419.369 366.42 419.779 366.446 420.295 C 366.475 420.809 366.117 421.315 365.375 421.811 C 364.634 422.32 363.928 422.592 363.259 422.629 Z M 375.43 421.968 C 375.43 421.968 375.267 421.977 374.941 421.994 C 374.598 422.013 374.039 421.865 373.27 421.545 C 372.501 421.238 372.102 420.834 372.076 420.33 C 372.049 419.827 372.414 419.321 373.172 418.811 C 373.944 418.314 374.74 418.041 375.558 417.996 C 376.389 417.951 377.099 418.087 377.691 418.404 C 378.277 418.708 378.588 419.118 378.618 419.633 C 378.645 420.148 378.285 420.654 377.545 421.151 C 376.802 421.66 376.098 421.932 375.43 421.968 Z M 387.598 421.307 C 387.598 421.307 387.434 421.317 387.109 421.334 C 386.765 421.352 386.209 421.204 385.441 420.884 C 384.669 420.58 384.273 420.172 384.243 419.67 C 384.217 419.166 384.581 418.66 385.339 418.151 C 386.114 417.653 386.908 417.381 387.726 417.336 C 388.559 417.291 389.267 417.428 389.859 417.743 C 390.449 418.049 390.758 418.457 390.785 418.972 C 390.813 419.489 390.456 419.993 389.713 420.491 C 388.972 420.997 388.266 421.272 387.598 421.307 Z M 399.765 420.647 C 399.765 420.647 399.604 420.656 399.275 420.675 C 398.933 420.692 398.377 420.543 397.608 420.224 C 396.839 419.919 396.439 419.512 396.413 419.01 C 396.384 418.505 396.749 417.999 397.507 417.49 C 398.284 416.992 399.078 416.718 399.893 416.676 C 400.725 416.631 401.437 416.765 402.028 417.082 C 402.617 417.386 402.925 417.795 402.95 418.312 C 402.981 418.828 402.626 419.334 401.881 419.83 C 401.14 420.337 400.436 420.611 399.765 420.647 Z" style="stroke: black; fill: none;"/>
  <path d="M 65.495 128.874 Z" style="stroke: black; fill: none;"/>
  <path d="M 65.495 128.874 Z" style="stroke: black; fill: none;"/>
</svg>