<?xml version="1.0" encoding="utf-8"?>
<svg viewBox="0 0 500 500" xmlns="http://www.w3.org/2000/svg">
  <path d="M 14.561 201.659 C 19.318 196.83 26.04 197.762 32.041 194.791 C 66.949 177.505 106.562 192.966 140.597 193.342 C 150.821 193.456 159.411 200.611 167.273 200.699 C 167.774 200.704 179.001 210.537 179.001 210.537 C 179.001 210.537 166.285 223.441 165.235 224.507 C 151.181 238.767 140.795 258.366 126.741 272.627 C 125.344 274.045 108.03 295.493 106.997 294.475 C 75.644 263.577 42.871 233 12.84 203.405 L 14.561 201.659 Z M 308.711 484.156 C 313.468 479.328 312.438 472.62 315.322 466.577 C 332.094 431.42 316.055 392.037 315.182 358.011 C 314.918 347.79 302.248 335.716 302.047 327.857 C 302.033 327.355 292.038 316.272 292.038 316.272 C 292.038 316.272 279.32 329.177 278.271 330.242 C 264.217 344.503 254.692 363.228 240.638 377.489 C 239.24 378.907 222.622 402.761 223.655 403.779 C 255.009 434.677 276.958 456.307 306.989 485.902 L 308.711 484.156 Z M 329.996 34.055 C 329.996 34.055 317.812 46.419 317.089 47.152 C 302.728 61.724 289.252 77.211 274.973 91.701 C 229.945 137.392 190.293 191.297 151.704 242.151 C 139.639 258.052 127.233 272.419 113.122 286.738 C 108.132 291.802 104.134 297.67 99.399 302.475 C 96.819 305.094 88.937 307.655 91.655 310.333 C 120.33 338.592 155.789 361.487 184.636 389.915 C 186.105 391.362 209.98 411.303 210.767 410.503 C 261.946 358.57 295.093 290.512 357.585 248.839 C 384.491 230.897 406.979 202.342 429.953 179.029 C 432.488 176.456 449.572 158.776 447.933 157.161 C 418.775 128.427 386.486 91.445 355.404 60.815 C 349.274 54.773 337.998 47.102 332.85 42.03 C 332.344 41.531 326.51 35.781 326.51 35.781 C 339.313 21.872 418.909 10.29 447.496 44.398 C 475.321 77.597 449.742 158.947 449.742 158.947 M 386.4 120.786 C 361.193 95.945 301.411 88.651 284.095 124.952 C 281.194 131.029 285.049 141.701 286.451 147.925 C 289.951 163.469 308.829 195.238 326.668 201.329 C 354.973 210.99 385.407 185.28 384.68 156.954 C 384.623 154.731 388.594 143.601 386.944 141.975 C 385.479 140.532 384.834 128.575 384.769 126.064 C 384.76 125.645 381.056 118.961 381.056 118.961 M 102.458 317.452 C 90.854 329.228 82.314 340.59 77.823 355.133 C 76.821 358.377 70.261 361.45 72.751 363.903 C 75.344 366.459 86.123 355.225 90.186 355.27 C 92.82 355.299 98.975 349.976 97.16 351.816 C 88.502 360.602 78.018 383.192 74.427 394.814 C 73.601 397.487 69.428 407.134 67.725 408.863 C 66.181 410.429 63.69 416.579 65.234 415.013 C 76.864 403.212 97.204 397.502 112.333 392.586 C 117.728 390.831 122.918 389.145 128.094 387.463 C 130.719 386.609 137.898 382.95 135.974 384.902 C 128.736 392.248 121.163 406.073 118.221 415.599 C 117.939 416.518 113.532 424.745 114.056 425.262 C 118.017 429.165 132.11 416.635 136.789 416.686 C 139.96 416.721 147.714 411.036 145.531 413.252 C 142.531 416.296 135.376 430.827 133.756 436.071 C 132.718 439.432 127.14 448.22 129.59 445.734 C 133.247 442.024 140.678 439.349 145.26 437.081 C 160.311 429.627 173.72 408.268 189.549 408.443 C 190.008 408.449 205.264 401.555 205.264 401.555" style="stroke: black; fill: none; stroke-width: 1.5282;"/>
</svg>