<?xml version="1.0" encoding="utf-8"?>
<svg viewBox="0 0 500 500" xmlns="http://www.w3.org/2000/svg">
  <g transform="matrix(2.09114, 0, 0, 2.09114, -274.774231, -129.733185)">
    <path d="M 204 162.059 C 197.166 177.266 189.801 189.976 185.059 204.676 C 175.977 232.83 176.265 264.025 176.265 293.294" style="stroke: black; fill: none; stroke-width: 0.478208;"/>
    <path d="M 176.265 293.294 C 214.782 293.294 251.544 295.695 287.206 291.941 C 294.095 291.216 300.506 290.588 307.5 290.588 C 309.089 290.588 317.647 289.235 317.647 289.235 C 320.578 289.235 322.833 289.235 325.088 289.235 C 324.606 258.613 324.894 227.418 315.812 199.264 C 311.07 184.564 303.705 171.854 296.871 156.647" style="stroke: black; fill: none; stroke-width: 0.478208;"/>
    <path d="M 268.941 67.353 C 243.533 67.353 218.282 67.277 199.265 86.294 C 179.329 106.23 186.101 150.433 208.059 166.118 C 221.13 175.454 240.856 173.778 256.088 172.882 C 269.999 172.064 292.65 163.702 300.059 152.588 C 320.159 122.437 300.644 67.352 266.912 67.352" style="stroke: black; fill: none; stroke-width: 0.478208;"/>
  </g>
</svg>